<?xml version="1.0" encoding="UTF-8" standalone="no"?>
<svg
   width="905.96259"
   height="776.40283"
   version="1.1"
   id="svg1"
   sodipodi:docname="Logo.svg"
   inkscape:version="1.4.2 (f4327f4, 2025-05-13)"
   xmlns:inkscape="http://www.inkscape.org/namespaces/inkscape"
   xmlns:sodipodi="http://sodipodi.sourceforge.net/DTD/sodipodi-0.dtd"
   xmlns="http://www.w3.org/2000/svg"
   xmlns:svg="http://www.w3.org/2000/svg">
  <defs
     id="defs1">
    <linearGradient
       id="swatch409"
       inkscape:swatch="solid">
      <stop
         style="stop-color:#ffffff;stop-opacity:1;"
         offset="0"
         id="stop409" />
    </linearGradient>
  </defs>
  <sodipodi:namedview
     id="namedview1"
     pagecolor="#ffffff"
     bordercolor="#000000"
     borderopacity="0.25"
     inkscape:showpageshadow="2"
     inkscape:pageopacity="0.0"
     inkscape:pagecheckerboard="false"
     inkscape:deskcolor="#d1d1d1"
     inkscape:zoom="0.51582887"
     inkscape:cx="321.81215"
     inkscape:cy="247.175"
     inkscape:window-width="1920"
     inkscape:window-height="986"
     inkscape:window-x="-32000"
     inkscape:window-y="-32000"
     inkscape:window-maximized="0"
     inkscape:current-layer="svg1">
    <inkscape:page
       x="0"
       y="0"
       width="905.96259"
       height="776.40283"
       id="page2"
       margin="0"
       bleed="0" />
  </sodipodi:namedview>
  <g
     id="g389"
     style="fill:#f4b400;fill-opacity:1"
     transform="translate(-110.77702,-29.079412)"
     inkscape:export-filename="favicon-w.png"
     inkscape:export-xdpi="96"
     inkscape:export-ydpi="96">
    <g
       id="g399"
       style="fill:#f4b400;fill-opacity:1">
      <g
         id="g398"
         style="fill:#f4b400;fill-opacity:1">
        <g
           id="g397"
           style="fill:#f4b400;fill-opacity:1">
          <g
             id="g396"
             style="fill:#f4b400;fill-opacity:1">
            <g
               id="g395"
               style="fill:#f4b400;fill-opacity:1">
              <g
                 id="g394"
                 style="fill:#f4b400;fill-opacity:1">
                <g
                   id="g393"
                   style="fill:#f4b400;fill-opacity:1">
                  <g
                     id="g392"
                     style="fill:#f4b400;fill-opacity:1">
                    <g
                       id="g391"
                       style="fill:#f4b400;fill-opacity:1">
                      <g
                         id="g390"
                         style="fill:#f4b400;fill-opacity:1">
                        <path
                           style="fill:#f4b400;fill-opacity:1;stroke-width:0.930764"
                           d="m 859.00255,31.63486 c -1.22355,-0.813443 -1.22355,-0.909357 0,-0.863222 0.75708,0.02851 2.20244,0.416988 3.21189,0.863222 l 1.83536,0.811329 -1.83536,0.05192 c -1.00945,0.02851 -2.45481,-0.359902 -3.21189,-0.863221 z"
                           id="path386" />
                        <path
                           style="fill:#f4b400;fill-opacity:1;stroke-width:0.930764"
                           d="m 821.37755,55.406949 c 0,-0.552148 0.41295,-1.266453 0.91768,-1.587349 1.82986,-1.163359 0.85536,-3.168169 -1.83536,-3.776126 -3.80399,-0.859484 -3.48556,-2.893276 1.1471,-7.325995 9.57602,-9.162837 21.37778,-14.489761 29.9673,-13.526253 7.28961,0.8177 6.88217,1.497545 -0.90731,1.51382 -7.83416,0.01634 -11.30027,1.07191 -18.30319,5.573977 -4.92135,3.163874 -12.82159,10.239249 -12.82159,11.482925 0,0.346205 1.18564,0.8734 2.63467,1.171543 2.23079,0.45897 2.56694,0.906809 2.19261,2.921267 -0.45425,2.444701 -2.99191,5.457531 -2.99191,3.552191 z"
                           id="path385" />
                        <path
                           style="fill:#f4b400;fill-opacity:1;stroke-width:0.930764"
                           d="m 272.6031,63.756178 c 0,-0.532547 0.36928,-0.968284 0.82062,-0.968284 0.45135,0 2.20642,-1.357325 3.90016,-3.016293 1.69374,-1.658957 3.49248,-3.103621 3.9972,-3.210366 0.50472,-0.106744 2.10664,-0.671413 3.5598,-1.254827 l 2.64209,-1.060733 -4.93632,-4.945796 c -2.71496,-2.720179 -6.79462,-6.415996 -9.06588,-8.212903 -2.27126,-1.796918 -4.37657,-3.623608 -4.67847,-4.059308 -1.50398,-2.170526 -6.70183,-1.511857 -17.73888,2.247882 -6.37439,2.171404 -11.38853,4.155022 -11.14257,4.40804 0.24596,0.253011 2.13934,-0.236479 4.20752,-1.08776 7.53344,-3.100822 16.28894,-3.604378 20.81422,-1.197079 3.72524,1.981711 10.1857,9.421331 10.94259,12.601056 0.34718,1.458535 1.08385,2.963992 1.63704,3.34546 0.61829,0.426348 0.38707,0.699124 -0.60012,0.708017 -0.88329,0.0072 -1.60596,-0.389062 -1.60596,-0.882252 0,-1.514505 -5.4561,-9.310149 -7.90041,-11.288046 -6.2624,-5.067428 -13.00865,-4.870579 -29.13644,0.850176 -11.69936,4.149943 -14.69405,4.708782 -9.76499,1.822264 3.06467,-1.794707 2.21789,-1.838831 -2.75305,-0.143464 -0.7901,0.269472 -0.59464,-0.17509 0.45885,-1.043552 1.00945,-0.832173 2.16825,-1.526536 2.5751,-1.543057 0.40685,-0.01652 3.09747,-1.233405 5.97916,-2.704216 2.88169,-1.4708 6.45855,-2.988955 7.94861,-3.373677 1.49005,-0.384711 4.78731,-1.679894 7.32724,-2.878173 2.53993,-1.198277 5.65045,-2.460881 6.91227,-2.805783 1.26182,-0.344892 4.359,-1.194445 6.88262,-1.887894 17.29627,-4.75265 23.01959,-3.815114 37.20498,6.094593 10.12646,7.074194 11.30697,9.037544 6.72521,11.185074 -2.9912,1.402009 -3.96109,0.68968 -1.34729,-0.989525 1.05861,-0.680089 1.92473,-1.546201 1.92473,-1.924701 0,-1.189035 -13.76846,-10.305944 -19.84369,-13.139671 -6.23967,-2.910441 -11.22608,-3.392822 -17.25933,-1.669652 l -3.60757,1.030363 4.96267,4.39255 c 2.72947,2.415899 7.90483,7.415991 11.50082,11.111307 3.59598,3.695317 7.11576,6.95409 7.82174,7.241716 0.81789,0.333218 0.58762,0.549994 -0.63463,0.597481 -1.66883,0.06482 -4.96335,1.553759 -16.20602,7.32405 -1.51796,0.779084 -2.52362,0.909387 -2.52362,0.326983 z"
                           id="path382" />
                        <path
                           style="fill:#f4b400;fill-opacity:1;stroke-width:0.930764"
                           d="m 929.43473,92.724593 c -3.39332,-1.393396 -3.18658,-2.397172 0.45883,-2.227038 2.75479,0.128561 3.00522,-0.106394 3.28081,-3.078054 0.79866,-8.611421 -4.73755,-24.830427 -10.31577,-30.221362 -1.67733,-1.620992 -13.0668,-6.682728 -15.03696,-6.682728 -0.2565,0 0.32036,0.913473 1.28181,2.029951 1.42636,1.656246 1.03019,1.546267 -2.15195,-0.597469 -2.1451,-1.445076 -3.90017,-2.945341 -3.90017,-3.333922 0,-0.388582 -1.91383,-1.202253 -4.25291,-1.808151 -2.33908,-0.605908 -5.88923,-1.960413 -7.88922,-3.010025 -2,-1.049612 -3.81215,-1.727521 -4.02708,-1.506467 -0.21483,0.221055 2.5598,1.759062 6.16591,3.417791 7.62329,3.506482 7.94991,3.793826 11.38323,10.01514 2.10534,3.814824 2.63366,6.003854 2.79104,11.564985 0.10682,3.772715 -0.16859,7.090104 -0.61191,7.371949 -0.44323,0.281865 -0.8151,-2.167688 -0.82619,-5.443442 -0.0377,-11.047041 -5.28651,-18.162639 -17.87464,-24.230212 -12.51792,-6.033748 -12.22885,-5.877521 -9.8651,-5.331465 1.13564,0.262347 2.99395,0.733333 4.12958,1.046648 2.03313,0.560924 2.03661,0.546915 0.22942,-0.914012 -1.00944,-0.816011 -2.24832,-1.499793 -2.75304,-1.519504 -0.50473,-0.01974 -1.99349,-0.61329 -3.30825,-1.319076 -1.31487,-0.705777 -4.61851,-1.849471 -7.34146,-2.54154 -2.72304,-0.69207 -4.22493,-1.418247 -3.33753,-1.613737 1.87483,-0.413024 6.76544,1.041201 12.55428,3.73306 2.24015,1.041709 4.77296,2.032679 5.62833,2.202132 0.85537,0.169463 3.35854,1.26706 5.56255,2.439104 2.20398,1.172044 6.21169,2.448865 8.90583,2.837371 2.69421,0.388507 7.03027,1.760467 9.63567,3.048797 2.60548,1.288338 6.85077,3.259807 9.43416,4.381061 5.67246,2.462062 9.32778,6.243656 13.03916,13.489735 3.48197,6.798221 4.91456,13.725634 4.56189,22.059466 -0.29824,7.046379 -0.88741,7.655743 -5.55032,5.741014 z"
                           id="path368" />
                        <g
                           id="g388"
                           style="fill:#f4b400;fill-opacity:1">
                          <g
                             id="g387"
                             style="fill:#f4b400;fill-opacity:1">
                            <g
                               id="g386"
                               style="fill:#f4b400;fill-opacity:1">
                              <path
                                 style="fill:#f4b400;fill-opacity:1;stroke-width:0.930764"
                                 d="m 820.06003,58.735044 c 0.34459,-0.931018 0.85776,-1.454959 1.1403,-1.164293 0.28257,0.290656 5.7e-4,1.052397 -0.62658,1.69277 -0.90631,0.925391 -1.01176,0.816967 -0.51372,-0.528477 z"
                                 id="path384" />
                              <path
                                 style="fill:#f4b400;fill-opacity:1;stroke-width:0.930764"
                                 d="m 235.43692,45.795333 c 1.21019,-0.534964 1.3665,-0.829002 0.45885,-0.863223 -0.7571,-0.02851 -1.99596,0.359902 -2.75306,0.863223 -1.67749,1.115204 -0.22857,1.115204 2.29421,0 z"
                                 id="path383" />
                              <path
                                 style="fill:#f4b400;fill-opacity:1;stroke-width:0.930764"
                                 d="m 912.83603,64.508396 c -0.8282,-2.168986 -1.3153,-4.13956 -1.0825,-4.37907 0.40893,-0.420702 1.36929,1.777336 2.70818,6.198617 1.09195,3.606159 -0.0358,2.343675 -1.62568,-1.819547 z"
                                 id="path381" />
                              <path
                                 style="fill:#f4b400;fill-opacity:1;stroke-width:0.930764"
                                 d="m 272.6031,69.546327 c 0,-0.569274 0.57103,-0.80964 1.26896,-0.534123 0.69793,0.275507 3.78267,-0.587454 6.85496,-1.917697 3.07231,-1.330232 6.43764,-2.418616 7.47851,-2.418616 1.04086,0 3.38799,-0.642805 5.21581,-1.428443 1.82782,-0.78564 3.50477,-1.241781 3.72654,-1.013638 0.68345,0.703071 -5.05721,3.384889 -7.29265,3.40684 -1.16071,0.01144 -3.91863,0.864765 -6.12873,1.896354 -5.02043,2.343355 -11.1234,3.445785 -11.1234,2.009323 z"
                                 id="path380" />
                              <path
                                 style="fill:#f4b400;fill-opacity:1;stroke-width:0.930764"
                                 d="m 815.91229,73.644192 c 0,-0.519222 0.80755,-2.006067 1.79453,-3.304115 0.98696,-1.298039 1.79453,-1.935258 1.79453,-1.416047 0,0.519222 -0.80757,2.006067 -1.79453,3.304115 -0.98698,1.298038 -1.79453,1.935258 -1.79453,1.416047 z"
                                 id="path379" />
                              <path
                                 style="fill:#f4b400;fill-opacity:1;stroke-width:0.930764"
                                 d="m 276.27381,77.155087 c 0,-1.23063 4.33799,-2.667164 5.24296,-1.736217 0.31297,0.321973 -0.24311,0.585403 -1.23573,0.585403 -0.99263,0 -2.30034,0.509771 -2.90601,1.132831 -0.83675,0.860786 -1.10122,0.865114 -1.10122,0.01793 z"
                                 id="path378" />
                              <path
                                 style="fill:#f4b400;fill-opacity:1;stroke-width:0.930764"
                                 d="m 287.47292,79.737457 c -0.70896,-1.167829 -0.76987,-1.845126 -0.16588,-1.845126 0.52485,0 1.19881,0.655542 1.49768,1.456763 0.82592,2.214104 -0.0657,2.47408 -1.3318,0.388363 z"
                                 id="path377" />
                              <path
                                 style="fill:#f4b400;fill-opacity:1;stroke-width:0.930764"
                                 d="m 890.22406,79.245133 c 0.5942,-1.852052 0.93593,-3.479835 0.75946,-3.617289 -0.64329,-0.500981 -28.16708,-10.007918 -28.97428,-10.007918 -0.45727,0 -1.52582,1.497954 -2.3745,3.328797 l -1.54308,3.328806 2.52024,0.988029 c 1.38615,0.543409 3.67484,1.226538 5.08606,1.51805 1.41131,0.291511 6.77975,2.148427 11.92989,4.126472 5.15021,1.978036 9.8482,3.620288 10.43993,3.649432 0.5918,0.02916 1.56206,-1.462338 2.15628,-3.314379 z"
                                 id="path376" />
                              <path
                                 style="fill:#f4b400;fill-opacity:1;stroke-width:0.930764"
                                 d="m 886.0742,84.808932 c -1.00945,-0.229163 -3.90016,-1.231197 -6.42378,-2.226769 -2.52363,-0.995561 -6.24024,-2.214515 -8.25915,-2.708787 -2.0189,-0.494273 -5.94199,-1.742576 -8.71798,-2.77399 -2.776,-1.031426 -6.49263,-2.293632 -8.25917,-2.804887 l -3.21187,-0.929576 3.09478,-0.09636 c 2.53115,-0.07884 2.90227,-0.335073 2.03773,-1.406762 -0.79894,-0.990315 -0.7904,-1.912656 0.0349,-3.776126 0.60061,-1.356151 1.46315,-2.465733 1.91658,-2.465733 0.4535,0 0.55712,-0.445166 0.23023,-0.989245 -0.32688,-0.544078 -0.38414,-1.552666 -0.12728,-2.241299 0.55024,-1.474963 4.47811,-0.551014 17.13158,4.029828 20.1748,7.303727 19.58767,6.911366 18.18151,12.150192 -0.48362,1.801853 -0.64633,3.515789 -0.36157,3.808745 0.28475,0.292942 0.0579,1.102748 -0.50426,1.799534 -1.00698,1.248118 -3.15968,1.449075 -6.76233,0.631252 z"
                                 id="path375" />
                              <path
                                 style="fill:#f4b400;fill-opacity:1;stroke-width:0.930764"
                                 d="m 915.07876,86.03748 c -0.57474,-0.712335 -4.23869,-2.471524 -8.14213,-3.909283 -8.90961,-3.281691 -10.45665,-4.610409 -4.34413,-3.731196 2.52363,0.362991 4.98071,1.035155 5.46021,1.493698 1.11719,1.06838 5.17253,1.051995 6.82985,-0.02751 0.97367,-0.634292 1.12325,-2.031149 0.62844,-5.868625 -0.35717,-2.76992 -0.33523,-4.71301 0.0487,-4.31798 0.8629,0.887643 1.32146,2.807576 1.90594,7.979819 0.36652,3.243427 0.17196,4.012133 -1.01551,4.012133 -1.98173,0 -1.84885,0.878337 0.52638,3.479278 1.57272,1.722171 1.69376,2.184918 0.57125,2.184918 -0.78333,0 -1.89437,-0.582827 -2.46903,-1.295163 z"
                                 id="path374" />
                              <path
                                 style="fill:#f4b400;fill-opacity:1;stroke-width:0.930764"
                                 d="m 245.76086,81.041967 c 0.88328,-0.344574 1.81242,-0.699877 2.06479,-0.789556 0.25236,-0.08965 1.07827,-0.441672 1.83536,-0.782166 0.75709,-0.340514 5.45375,-2.090829 10.43702,-3.88959 4.98326,-1.798761 9.26315,-3.478979 9.51086,-3.733802 0.24772,-0.254814 -0.4226,-1.605008 -1.4896,-3.000423 -1.06699,-1.395394 -1.93999,-3.142103 -1.93999,-3.881552 0,-0.73944 -0.41739,-1.079088 -0.92751,-0.754744 -0.58711,0.373265 -0.41871,1.337004 0.45883,2.625839 0.7625,1.119877 1.38638,2.460962 1.38638,2.980172 0,0.519222 -0.64286,-1.13e-4 -1.42856,-1.15407 -1.81937,-2.6721 -4.11861,-2.648521 -9.45036,0.09688 -2.34457,1.207257 -6.28679,2.716382 -8.76047,3.353612 -9.08072,2.339223 -11.8478,5.650366 -7.47072,8.939569 1.7442,1.310694 2.39101,1.30955 5.77397,-0.01031 z"
                                 id="path373" />
                              <path
                                 style="fill:#f4b400;fill-opacity:1;stroke-width:0.930764"
                                 d="m 239.56651,84.028539 c 0.93564,-1.15976 0.87292,-1.416047 -0.34649,-1.416047 -0.81888,0 -1.48888,0.637219 -1.48888,1.416047 0,0.778827 0.1559,1.416046 0.34646,1.416046 0.19057,0 0.86057,-0.637219 1.48891,-1.416046 z"
                                 id="path372" />
                              <path
                                 style="fill:#f4b400;fill-opacity:1;stroke-width:0.930764"
                                 d="m 237.03899,85.465289 c -0.50042,-0.824305 -1.19965,-2.97164 -1.55389,-4.771843 -0.35422,-1.800225 -0.83049,-3.961369 -1.05836,-4.802545 -0.31423,-1.159913 1.53147,-2.394923 7.63938,-5.111718 4.42955,-1.970254 8.67317,-3.659572 9.43026,-3.754032 0.75708,-0.0945 2.40892,-0.606086 3.67073,-1.136953 11.9872,-5.043156 13.93004,-5.368593 13.12415,-2.198357 -0.25503,1.003188 0.34688,2.571436 1.40449,3.659428 1.01792,1.04713 1.98525,2.871367 2.14963,4.05385 0.24607,1.770184 -0.56742,2.597313 -4.60537,4.682505 -2.69733,1.3929 -6.23322,2.7544 -7.85754,3.025568 -1.62432,0.271147 -4.78586,1.359376 -7.02564,2.418255 -2.23979,1.058889 -6.39786,2.714848 -9.24017,3.679905 -4.6878,1.591662 -5.25235,1.615437 -6.07767,0.255937 z"
                                 id="path371"
                                 sodipodi:nodetypes="ssssscssssssss" />
                              <path
                                 style="fill:#f4b400;fill-opacity:1;stroke-width:0.930764"
                                 d="m 846.63181,89.10292 c 1.83445,-6.108362 4.9678,-10.214636 7.78231,-10.198734 0.7571,0.0052 0.27734,0.621936 -1.06624,1.372567 -1.49298,0.834157 -3.06231,3.03372 -4.03625,5.657229 -1.68175,4.530026 -3.86344,7.109851 -2.67982,3.168938 z"
                                 id="path370" />
                              <path
                                 style="fill:#f4b400;fill-opacity:1;stroke-width:0.930764"
                                 d="m 820.96477,87.804666 c 0.611,-4.126812 4.12884,-12.744428 5.20253,-12.744428 0.36899,0 0.20877,1.168241 -0.35598,2.596086 -0.56482,1.427847 -2.01219,5.144965 -3.21628,8.260273 -1.98294,5.130124 -2.13665,5.308152 -1.63027,1.888069 z"
                                 id="path369" />
                              <path
                                 style="fill:#f4b400;fill-opacity:1;stroke-width:0.930764"
                                 d="m 909.01628,93.095756 c -1.00945,-0.3613 -3.83115,-1.593395 -6.27044,-2.737995 -2.43929,-1.1446 -4.76323,-2.08109 -5.16437,-2.08109 -0.40101,0 -1.29595,-0.716758 -1.9887,-1.592796 -1.08148,-1.367786 -1.06497,-1.516906 0.11711,-1.055519 12.45415,4.86113 16.45038,6.71783 16.01576,7.441234 -0.28797,0.479195 -0.60236,0.828922 -0.69872,0.777167 -0.0965,-0.05173 -1.0012,-0.389702 -2.01064,-0.751001 z"
                                 id="path367" />
                              <path
                                 style="fill:#f4b400;fill-opacity:1;stroke-width:0.930764"
                                 d="m 913.14585,93.885146 c 0,-0.54986 0.41296,-0.737193 0.91768,-0.4163 0.50473,0.320891 0.91769,0.770778 0.91769,0.999745 0,0.228968 -0.41296,0.4163 -0.91769,0.4163 -0.50472,0 -0.91768,-0.449886 -0.91768,-0.999745 z"
                                 id="path366" />
                              <path
                                 style="fill:#f4b400;fill-opacity:1;stroke-width:0.930764"
                                 d="m 895.70988,93.885146 c 0,-0.54986 0.41294,-0.737193 0.91767,-0.4163 0.50474,0.320891 0.91768,0.770778 0.91768,0.999745 0,0.228968 -0.41294,0.4163 -0.91768,0.4163 -0.50473,0 -0.91767,-0.449886 -0.91767,-0.999745 z"
                                 id="path365" />
                              <path
                                 style="fill:#f4b400;fill-opacity:1;stroke-width:0.930764"
                                 d="m 797.59634,93.940906 c -0.0276,-0.778828 0.34982,-2.053267 0.83913,-2.832094 1.08406,-1.725665 1.08406,-0.235151 0,2.360081 -0.52006,1.244935 -0.80592,1.405721 -0.83913,0.472013 z"
                                 id="path364" />
                              <path
                                 style="fill:#f4b400;fill-opacity:1;stroke-width:0.930764"
                                 d="m 290.4979,90.164777 c -0.91885,-3.121944 -1.45558,-5.897533 -1.19269,-6.167969 0.26288,-0.270426 1.18675,2.106895 2.05303,5.282945 0.86627,3.176049 1.403,5.951637 1.19269,6.167969 -0.21029,0.216334 -1.13416,-2.160989 -2.05303,-5.282945 z"
                                 id="path363" />
                              <path
                                 style="fill:#f4b400;fill-opacity:1;stroke-width:0.930764"
                                 d="m 201.6356,96.143642 c -0.33649,-0.346141 -0.61179,-1.408173 -0.61179,-2.36008 0,-1.831482 -2.2527,-2.383239 -3.21189,-0.78669 -0.31195,0.51922 -1.54647,0.944034 -2.74338,0.944034 -2.79339,0 -3.1374,-2.200234 -1.69735,-10.856361 1.75472,-10.547678 6.03385,-20.794901 10.08401,-24.148059 0.89071,-0.73743 0.46238,0.238974 -0.95183,2.1698 -3.63472,4.962495 -7.62011,16.156606 -8.37164,23.514313 -0.68974,6.752538 0.0273,8.246733 3.1359,6.535258 2.57357,-1.416882 4.42428,-0.3363 4.87867,2.84851 0.42717,2.994023 0.40607,3.082371 -0.5107,2.139275 z"
                                 id="path362" />
                              <path
                                 style="fill:#f4b400;fill-opacity:1;stroke-width:0.930764"
                                 d="m 241.8607,95.381582 c -2.0189,-1.279179 -3.30651,-2.339047 -2.86135,-2.355248 0.92318,-0.03359 6.99093,3.694807 6.99093,4.295679 0,0.632664 -0.26513,0.508092 -4.12958,-1.940431 z"
                                 id="path361" />
                              <path
                                 style="fill:#f4b400;fill-opacity:1;stroke-width:0.930764"
                                 d="m 843.43002,98.189045 c 0,-0.519212 0.40028,-1.581243 0.88959,-2.360071 0.48933,-0.778826 0.88961,-0.991233 0.88961,-0.472023 0,0.519222 -0.40028,1.581255 -0.88961,2.360081 -0.48931,0.778828 -0.88959,0.991234 -0.88959,0.472013 z"
                                 id="path360" />
                              <path
                                 style="fill:#f4b400;fill-opacity:1;stroke-width:0.930764"
                                 d="m 881.94462,98.433573 c 0,-0.852026 0.41295,-1.811695 0.91769,-2.132586 0.50472,-0.320893 0.91767,-1.362551 0.91767,-2.314799 0,-0.952238 0.58788,-1.963413 1.30643,-2.247051 1.10489,-0.436149 1.09166,0.02175 -0.0853,2.967095 -1.68687,4.222088 -3.05661,5.892358 -3.05661,3.727341 z"
                                 id="path359" />
                              <path
                                 style="fill:#f4b400;fill-opacity:1;stroke-width:0.930764"
                                 d="m 237.46523,102.4372 c -0.26397,-1.03845 -0.10566,-1.88807 0.35182,-1.88807 0.45746,0 0.83177,0.84962 0.83177,1.88807 0,1.03843 -0.15832,1.88805 -0.35183,1.88805 -0.19348,0 -0.56777,-0.84962 -0.83176,-1.88805 z"
                                 id="path358" />
                              <path
                                 style="fill:#f4b400;fill-opacity:1;stroke-width:0.930764"
                                 d="m 919.34021,105.58814 c 0.63091,-0.26188 1.66331,-0.26188 2.29421,0 0.6309,0.26188 0.1147,0.47615 -1.14711,0.47615 -1.26181,0 -1.77801,-0.21427 -1.1471,-0.47615 z"
                                 id="path357" />
                              <path
                                 style="fill:#f4b400;fill-opacity:1;stroke-width:0.930764"
                                 d="m 792.52953,106.88066 c 0.3446,-0.93103 0.85776,-1.45497 1.14032,-1.16431 0.28256,0.29067 5.4e-4,1.05239 -0.62659,1.69278 -0.90631,0.92539 -1.01176,0.81696 -0.51373,-0.52847 z"
                                 id="path356" />
                              <path
                                 style="fill:#f4b400;fill-opacity:1;stroke-width:0.930764"
                                 d="m 839.73121,108.07109 c 0,-1.34178 2.55473,-7.52193 3.10938,-7.52193 0.2475,0 -0.18326,1.91167 -0.95714,4.24813 -1.35771,4.09912 -2.15224,5.30766 -2.15224,3.2738 z"
                                 id="path355" />
                              <path
                                 style="fill:#f4b400;fill-opacity:1;stroke-width:0.930764"
                                 d="m 239.22103,107.5929 c -0.88555,-2.37395 -0.6243,-2.98649 0.45749,-1.07274 0.53565,0.94757 0.78059,1.92173 0.54431,2.16479 -0.23627,0.24305 -0.68709,-0.24837 -1.0018,-1.09205 z"
                                 id="path354" />
                              <path
                                 style="fill:#f4b400;fill-opacity:1;stroke-width:0.930764"
                                 d="m 812.27926,112.34953 c 0.0956,-1.7882 1.62504,-4.79931 1.67827,-3.3041 0.0276,0.77882 -0.34982,2.05326 -0.83914,2.83209 -0.4893,0.77883 -0.86685,0.99123 -0.83913,0.47201 z"
                                 id="path353" />
                              <path
                                 style="fill:#f4b400;fill-opacity:1;stroke-width:0.930764"
                                 d="m 778.38575,101.24397 c 1.84316,-4.795502 4.89244,-13.179647 6.77616,-18.631426 1.88373,-5.451789 4.16225,-11.611597 5.06333,-13.688462 2.86573,-6.604912 3.11424,-8.243948 1.19215,-7.863171 -1.16776,0.231338 -2.77424,3.09985 -5.20354,9.29109 -4.92345,12.548035 -11.77826,32.910919 -12.31033,36.569349 -0.80996,5.56838 1.08001,3.17453 4.48223,-5.67738 z"
                                 id="path352" />
                              <path
                                 style="fill:#f4b400;fill-opacity:1;stroke-width:0.930764"
                                 d="m 772.00509,110.49636 c -0.87694,-1.97988 -0.22529,-4.74869 4.38818,-18.644626 5.53327,-16.666387 9.7959,-28.190923 11.55766,-31.247376 0.73792,-1.28023 1.60504,-1.551791 3.44132,-1.077697 2.10672,0.543923 2.45481,1.127987 2.45481,4.118784 0,1.916739 -0.35744,3.888551 -0.79427,4.381812 -0.43681,0.493252 -1.92209,4.082932 -3.30071,7.977067 -1.37855,3.894125 -3.0859,8.418874 -3.79417,10.054994 -0.70826,1.63612 -1.29366,3.547789 -1.30109,4.24815 -0.0174,1.701982 -2.41928,8.770003 -4.76277,14.017792 -1.0434,2.33648 -2.32367,5.20397 -2.84509,6.37221 -1.25099,2.80286 -3.75763,2.70291 -5.04387,-0.20111 z"
                                 id="path351" />
                              <path
                                 style="fill:#f4b400;fill-opacity:1;stroke-width:0.930764"
                                 d="m 877.40834,114.2376 c -0.012,-0.51922 0.98237,-3.70533 2.20949,-7.08025 1.22714,-3.37491 2.23613,-5.28656 2.24208,-4.24813 0.011,1.87824 -4.41038,13.12939 -4.45157,11.32838 z"
                                 id="path350" />
                              <path
                                 style="fill:#f4b400;fill-opacity:1;stroke-width:0.930764"
                                 d="m 281.85237,115.96687 c -0.0398,-0.60656 -0.31011,-1.881 -0.60058,-2.8321 -0.50201,-1.64376 -0.47612,-1.64582 0.52378,-0.0417 0.57857,0.9282 0.84883,2.20263 0.60058,2.8321 -0.32575,0.82603 -0.47149,0.83762 -0.52378,0.0417 z"
                                 id="path349" />
                              <path
                                 style="fill:#f4b400;fill-opacity:1;stroke-width:0.930764"
                                 d="m 800.90092,115.88967 c 0.31485,-0.90864 0.85361,-2.07687 1.19711,-2.59609 0.34358,-0.51922 1.36992,-3.49292 2.28072,-6.60822 0.9108,-3.11531 3.29714,-9.91233 5.30292,-15.104505 2.00578,-5.192173 4.21419,-11.139564 4.90768,-13.216439 1.06691,-3.1953 1.19979,-3.326437 0.86364,-0.852512 -0.21841,1.607986 -2.49353,8.829825 -5.0557,16.048534 -7.09479,19.988892 -8.65862,23.981292 -9.3935,23.981292 -0.37148,0 -0.41774,-0.74344 -0.10287,-1.65206 z"
                                 id="path348" />
                              <path
                                 style="fill:#f4b400;fill-opacity:1;stroke-width:0.930764"
                                 d="m 176.24637,116.26788 c 0,-2.57915 4.80485,-6.88461 9.63567,-8.63421 6.05051,-2.19133 13.97265,-6.807 15.10222,-8.799007 0.78641,-1.386789 0.90499,-1.324369 0.92932,0.489233 0.0211,1.563984 -1.39261,2.936984 -5.7076,5.543654 -3.15454,1.90564 -7.59382,4.04844 -9.86508,4.7618 -4.88438,1.53406 -5.40534,1.88585 -8.06138,5.4436 -1.39542,1.86916 -2.03315,2.24395 -2.03315,1.19493 z"
                                 id="path347" />
                              <path
                                 style="fill:#f4b400;fill-opacity:1;stroke-width:0.930764"
                                 d="m 946.18243,118.06064 c 0,-0.75301 -0.72267,-1.80213 -1.60593,-2.33137 -1.10783,-0.66376 -1.21163,-0.97112 -0.33469,-0.99092 0.69927,-0.0158 2.22814,1.03332 3.39754,2.33137 2.00294,2.22326 2.02229,2.36007 0.33468,2.36007 -0.9854,0 -1.7916,-0.61611 -1.7916,-1.36915 z"
                                 id="path346" />
                              <path
                                 style="fill:#f4b400;fill-opacity:1;stroke-width:0.930764"
                                 d="m 283.26981,119.86531 c -0.88553,-2.37395 -0.62431,-2.9865 0.4575,-1.07275 0.53563,0.94758 0.78058,1.92174 0.54431,2.16479 -0.23627,0.24306 -0.6871,-0.24836 -1.00181,-1.09204 z"
                                 id="path345" />
                              <path
                                 style="fill:#f4b400;fill-opacity:1;stroke-width:0.930764"
                                 d="m 332.89376,114.55571 c 0.33914,-3.20081 -0.57189,-7.18418 -4.17507,-18.254693 -8.83387,-27.141558 -10.57889,-30.681019 -15.12621,-30.681019 -2.27804,0 -2.27926,0.0052 -1.10217,4.595382 1.6814,6.556868 13.05971,39.28497 15.76155,45.33583 2.59866,5.81978 3.9505,5.52987 4.6419,-0.9955 z"
                                 id="path344" />
                              <path
                                 style="fill:#f4b400;fill-opacity:1;stroke-width:0.930764"
                                 d="m 328.01166,120.13781 c -2.38699,-2.80471 -3.25486,-4.84035 -7.54649,-17.70058 -1.9926,-5.971005 -5.07573,-15.104514 -6.85141,-20.296688 -1.77567,-5.192173 -3.63906,-10.927157 -4.1409,-12.744428 -0.81792,-2.961982 -0.97796,-3.090925 -1.54553,-1.245335 -0.34822,1.132326 -1.21189,2.287231 -1.91924,2.566458 -1.51761,0.599079 -1.6518,-0.01061 -0.35141,-1.59697 0.5141,-0.62711 1.73992,-2.145571 2.72411,-3.374357 1.5482,-1.933042 2.38078,-2.172284 6.17735,-1.775059 2.41338,0.252526 5.77342,-0.03369 7.46677,-0.636065 2.77173,-0.985936 2.9276,-1.224322 1.56251,-2.38976 -1.20076,-1.025159 -1.26855,-1.456248 -0.32577,-2.071475 0.65478,-0.427287 1.60349,-0.77689 2.10822,-0.77689 0.50473,0 0.34295,0.374377 -0.35947,0.831962 -1.05657,0.688263 -0.9557,1.297213 0.58411,3.525652 1.02369,1.481538 2.26976,4.180556 2.76901,5.997815 2.69583,9.81265 13.62049,37.94937 16.33782,42.07848 3.64157,5.53353 3.67216,5.65969 1.5738,6.48802 -0.86789,0.34262 -1.28971,0.32637 -0.93736,-0.0361 0.35232,-0.36246 -0.76854,-2.63377 -2.49083,-5.04735 -2.98148,-4.17821 -16.40187,-38.940285 -17.1548,-44.435058 -0.23922,-1.745926 -0.95804,-2.427645 -2.78915,-2.645193 l -2.46687,-0.293078 2.3313,6.429286 c 1.28223,3.536102 2.85903,7.703724 3.50403,9.261367 0.645,1.557655 1.88419,5.168575 2.75376,8.024277 0.86959,2.855693 3.02785,9.403008 4.79613,14.549579 2.98926,8.70015 3.1319,9.61668 2.03092,13.04847 -1.02901,3.20743 -3.75677,6.38707 -5.47937,6.38707 -0.30445,0 -1.36701,-0.95581 -2.36124,-2.12406 z"
                                 id="path343" />
                              <path
                                 style="fill:#f4b400;fill-opacity:1;stroke-width:0.930764"
                                 d="m 300.28585,116.36168 c -3.86797,-9.29341 -7.76403,-20.271554 -6.78395,-19.115546 1.11379,1.313703 8.97224,20.198486 9.72223,23.363696 1.03107,4.35137 0.0513,2.93489 -2.93828,-4.24815 z"
                                 id="path342" />
                              <path
                                 style="fill:#f4b400;fill-opacity:1;stroke-width:0.930764"
                                 d="m 821.42031,124.97894 c -0.0238,-0.32284 2.84795,-8.04078 6.38101,-17.15101 3.53309,-9.110213 6.42378,-17.220222 6.42378,-18.022237 0,-2.134174 3.6367,-11.780298 4.69496,-12.453112 0.49793,-0.316595 0.25871,1.016461 -0.53161,2.962354 -0.7904,1.945883 -2.02285,6.126367 -2.73883,9.289966 -1.87454,8.283286 -14.00605,38.441859 -14.22931,35.374039 z"
                                 id="path341" />
                              <path
                                 style="fill:#f4b400;fill-opacity:1;stroke-width:0.930764"
                                 d="m 890.23185,128.398 c 0,-0.51921 0.4003,-1.58126 0.88961,-2.36008 0.4893,-0.77881 0.88959,-0.99124 0.88959,-0.47202 0,0.51923 -0.40029,1.58126 -0.88959,2.36009 -0.48931,0.77882 -0.88961,0.99123 -0.88961,0.47201 z"
                                 id="path340" />
                              <path
                                 style="fill:#f4b400;fill-opacity:1;stroke-width:0.930764"
                                 d="m 833.55841,127.92599 c 0.23327,-0.77883 1.53739,-5.17696 2.89795,-9.77364 1.36065,-4.59667 2.68038,-8.14518 2.93273,-7.88556 0.58585,0.6027 -3.93182,15.77764 -5.25731,17.6592 -0.88668,1.2587 -0.95035,1.2587 -0.57337,0 z"
                                 id="path339" />
                              <path
                                 style="fill:#f4b400;fill-opacity:1;stroke-width:0.930764"
                                 d="m 313.80905,124.95302 c 1.35862,-4.0092 1.26814,-7.92253 -0.25431,-10.99838 -0.69397,-1.40207 -2.38001,-6.58494 -3.74674,-11.51749 -1.36674,-4.932575 -3.13805,-9.716095 -3.93625,-10.630059 -0.79821,-0.913963 -1.59495,-3.011913 -1.77056,-4.662121 -0.62516,-5.874438 -2.29187,-10.439017 -4.62332,-12.661767 -2.3159,-2.207941 -5.24786,-2.954368 -6.07678,-1.54705 -0.44047,0.747818 9.06027,30.383427 13.84588,43.189437 1.55227,4.15375 3.09235,8.50808 3.42239,9.67632 0.8345,2.95373 1.95362,2.65115 3.13969,-0.84889 z"
                                 id="path338" />
                              <path
                                 style="fill:#f4b400;fill-opacity:1;stroke-width:0.930764"
                                 d="m 308.57792,128.5181 c -1.41035,-0.7116 -1.96219,-1.64539 -1.66579,-2.81874 0.54883,-2.17268 -4.44768,-16.82601 -8.35717,-24.50918 -0.74528,-1.464648 -1.5443,-4.013536 -1.77564,-5.664187 -0.52647,-3.756888 -5.58421,-19.504851 -6.71413,-20.905408 -1.0355,-1.283518 -0.19243,-2.715331 2.43718,-4.139199 3.08871,-1.672447 5.2151,-1.315001 9.00788,1.514196 2.80354,2.091292 3.79571,3.706307 5.07457,8.260271 2.11229,7.52172 5.32474,16.802072 7.91625,22.869007 1.15959,2.71471 1.84125,5.65189 1.51478,6.52706 -0.3827,1.02598 -0.23564,1.36367 0.41401,0.95064 0.57826,-0.36765 1.26292,0.27026 1.60689,1.49719 1.99603,7.11974 3.46198,10.00077 4.81656,9.46604 1.1301,-0.4461 1.29511,-0.0681 0.82013,1.8787 -0.37977,1.55656 -0.18928,2.57618 0.52723,2.82187 0.61702,0.21157 0.19354,0.63441 -0.94108,0.93964 -1.34433,0.36166 -1.97541,0.16221 -1.8117,-0.57253 0.13818,-0.62013 -0.42481,-2.81327 -1.25112,-4.87366 -3.5834,-8.93529 -3.47074,-8.77592 -2.92729,-4.14125 0.36259,3.09209 0.0488,5.24506 -1.10096,7.55226 -2.40784,4.83211 -3.60311,5.3592 -7.5906,3.34728 z"
                                 id="path337" />
                              <path
                                 style="fill:#f4b400;fill-opacity:1;stroke-width:0.930764"
                                 d="m 316.32001,129.34204 c 0.29052,-0.77883 0.94757,-1.41605 1.46009,-1.41605 0.53714,0 0.44795,0.59984 -0.21054,1.41605 -0.62834,0.77883 -1.28538,1.41604 -1.46009,1.41604 -0.17472,0 -0.08,-0.63721 0.21054,-1.41604 z"
                                 id="path336" />
                              <path
                                 style="fill:#f4b400;fill-opacity:1;stroke-width:0.930764"
                                 d="m 247.82565,132.17413 c 0,-0.77883 0.16231,-1.41605 0.36066,-1.41605 0.19836,0 0.59836,0.63722 0.88888,1.41605 0.29052,0.77883 0.12822,1.41604 -0.36066,1.41604 -0.48887,0 -0.88888,-0.63721 -0.88888,-1.41604 z"
                                 id="path335" />
                              <path
                                 style="fill:#f4b400;fill-opacity:1;stroke-width:0.930764"
                                 d="m 287.04008,133.88899 c -0.82079,-1.47236 -2.71143,-10.78765 -2.27962,-11.23185 0.23887,-0.24573 1.14307,2.15179 2.00936,5.32784 1.3825,5.0687 1.52367,8.15238 0.27026,5.90401 z"
                                 id="path334" />
                              <path
                                 style="fill:#f4b400;fill-opacity:1;stroke-width:0.930764"
                                 d="m 815.02268,133.81639 c -1.70652,-0.85023 -2.64301,-1.70355 -2.08103,-1.89624 1.27943,-0.43873 -4.21777,-6.79315 -6.70587,-7.75157 -1.09984,-0.42367 -2.99175,-0.13973 -4.72103,0.70857 -1.61732,0.79341 -3.86922,1.16158 -5.1237,0.83769 -3.53803,-0.91347 -10.55555,-7.84508 -11.76782,-11.62368 -0.97448,-3.03757 -0.83517,-3.97993 1.28797,-8.71004 1.30936,-2.91718 4.27797,-10.401741 6.59686,-16.632349 8.90814,-23.935044 10.14077,-26.092551 15.56308,-27.239376 2.42369,-0.512605 2.5451,-0.442724 1.01496,0.584136 -4.85362,3.257296 -6.21427,5.668863 -12.10939,21.463067 -3.39138,9.086309 -7.27886,19.072172 -8.63878,22.190832 l -2.47271,5.67027 3.56401,4.94982 c 1.96017,2.7224 4.63475,5.67157 5.94347,6.55372 2.27291,1.53201 2.5362,1.51115 5.87446,-0.46524 1.92217,-1.13805 4.11039,-1.82618 4.86271,-1.52921 1.96063,0.77396 11.40478,10.6584 10.78893,11.29191 -0.28349,0.29161 0.0798,0.90881 0.80802,1.37156 2.506,1.59326 0.41368,1.76952 -2.68414,0.22613 z"
                                 id="path333" />
                              <path
                                 style="fill:#f4b400;fill-opacity:1;stroke-width:0.930764"
                                 d="m 289.21051,136.37159 c 0.4164,-2.25342 -1.06113,-9.18091 -3.48466,-16.338 -1.25524,-3.707 -3.4503,-10.98813 -4.87789,-16.18031 -1.42757,-5.192172 -3.42232,-11.682406 -4.43276,-14.422729 -1.01043,-2.740322 -1.77283,-5.076803 -1.69423,-5.192173 0.33645,-0.493757 -2.78294,-4.403102 -3.18409,-3.990439 -0.89956,0.925391 0.91102,9.624945 3.21135,15.43009 1.54967,3.910799 1.90699,5.588501 1.03095,4.840571 -0.7374,-0.629552 -1.34476,-1.62365 -1.34969,-2.209085 -0.0216,-2.559121 -4.60681,-11.070817 -5.61766,-10.428146 -0.76859,0.488655 -0.87341,-0.0844 -0.37678,-2.059893 0.79042,-3.144132 1.2441,-5.261786 1.34478,-6.277011 0.1386,-1.397621 3.4334,-0.671104 5.36891,1.183884 1.08571,1.040535 2.42526,3.695631 2.97679,5.900192 1.61925,6.472683 8.84503,29.994479 10.94639,35.633349 2.4821,6.66057 3.00553,12.81194 1.21992,14.33642 -1.06571,0.90983 -1.28293,0.86429 -1.08133,-0.22672 z"
                                 id="path332" />
                              <path
                                 style="fill:#f4b400;fill-opacity:1;stroke-width:0.930764"
                                 d="m 249.41434,136.49803 c -0.39916,-1.57025 -0.27973,-1.93883 0.40125,-1.23828 0.53328,0.54857 0.78903,1.55464 0.56834,2.2357 -0.22911,0.70704 -0.64507,0.2791 -0.96959,-0.99742 z"
                                 id="path331" />
                              <path
                                 style="fill:#f4b400;fill-opacity:1;stroke-width:0.930764"
                                 d="m 858.51104,143.08499 c 0.28678,-0.47738 0.11974,-1.12334 -0.37111,-1.43546 -0.49097,-0.3121 -0.64669,-1.22672 -0.34615,-2.03244 0.3568,-0.95633 0.7613,-1.10749 1.16509,-0.4354 0.34019,0.56629 2.52951,-4.83453 4.86518,-12.00178 2.33568,-7.16727 5.76038,-16.83466 7.61044,-21.48312 5.26676,-13.23325 4.28879,-20.723929 -2.44608,-18.736928 -3.2219,0.950558 -5.45113,4.249943 -7.84004,11.603858 -0.77646,2.39004 -2.81574,7.41334 -4.53179,11.16289 -1.71607,3.74955 -3.12013,7.18087 -3.12013,7.62511 0,0.44426 -1.25786,4.70048 -2.79527,9.45826 -1.53739,4.75778 -2.72734,9.18554 -2.64431,9.83948 0.32414,2.55349 -0.12341,3.46732 -1.44304,2.94638 -0.75709,-0.29887 -1.37368,-1.24136 -1.37028,-2.09445 0.0102,-2.47477 8.06157,-27.18345 10.44424,-32.05128 1.19225,-2.43591 3.13902,-7.548558 4.32605,-11.361435 2.37809,-7.638564 5.1381,-10.596641 10.02028,-10.739444 3.20758,-0.09378 6.87912,2.983346 7.73228,6.480483 0.35763,1.465688 -0.47984,5.337668 -2.27777,10.530836 -1.56391,4.51709 -5.23969,15.22231 -8.16839,23.7894 -6.54097,19.13377 -6.32722,18.61739 -7.9775,19.26885 -0.74426,0.2938 -1.11856,0.1436 -0.8317,-0.33381 z"
                                 id="path330" />
                              <path
                                 style="fill:#f4b400;fill-opacity:1;stroke-width:0.930764"
                                 d="m 868.87498,145.62666 c 0.28807,-1.16824 1.0323,-2.97369 1.65385,-4.01213 0.62164,-1.03843 1.43057,-2.95009 1.79775,-4.24814 0.36716,-1.29804 1.85545,-4.99745 3.30741,-8.22091 1.45196,-3.22345 2.6399,-6.20684 2.6399,-6.62975 0,-0.4229 1.23263,-4.0619 2.7392,-8.08666 1.50647,-4.02475 2.93016,-8.40165 3.1637,-9.72646 0.56989,-3.23284 3.96284,-10.335182 5.60871,-11.740324 1.98806,-1.697296 1.15792,3.065202 -1.65156,9.474954 -1.25163,2.85568 -3.80838,9.86512 -5.68156,15.57652 -4.63109,14.12056 -15.90317,37.04494 -13.5774,27.6129 z"
                                 id="path329" />
                              <path
                                 style="fill:#f4b400;fill-opacity:1;stroke-width:0.930764"
                                 d="m 868.17938,150.58283 c 0,-0.51921 0.41296,-0.94403 0.91769,-0.94403 0.50472,0 0.91767,0.42482 0.91767,0.94403 0,0.51923 -0.41295,0.94403 -0.91767,0.94403 -0.50473,0 -0.91769,-0.4248 -0.91769,-0.94403 z"
                                 id="path328" />
                              <path
                                 style="fill:#f4b400;fill-opacity:1;stroke-width:0.930764"
                                 d="m 877.81505,150.85065 c -2.52363,-0.66331 -5.10461,-1.00824 -5.73551,-0.76654 -0.63092,0.24171 -1.14711,0.0734 -1.14711,-0.37394 0,-1.53623 2.86574,-1.94144 6.99614,-0.98924 2.27447,0.52436 4.52152,0.70792 4.99348,0.40791 1.01661,-0.64637 1.1137,0.5724 0.15563,1.9549 -0.45754,0.66033 -2.14847,0.58543 -5.26263,-0.23309 z"
                                 id="path327" />
                              <path
                                 style="fill:#f4b400;fill-opacity:1;stroke-width:0.930764"
                                 d="m 218.86813,157.63616 c -1.23403,-2.87051 -2.2437,-5.5902 -2.2437,-6.04375 0,-1.27975 -11.60794,-36.37649 -12.864,-38.89443 -1.05241,-2.10971 -1.02493,-2.1475 0.48482,-0.66663 0.88026,0.86344 5.00911,11.9086 9.17523,24.54481 4.16612,12.63623 7.87439,23.7184 8.24058,24.62702 0.36621,0.90864 0.39244,1.65206 0.0584,1.65206 -0.33414,0 -1.61719,-2.34859 -2.85124,-5.21908 z"
                                 id="path326" />
                              <path
                                 style="fill:#f4b400;fill-opacity:1;stroke-width:0.930764"
                                 d="m 301.08439,137.35228 c 2.65718,-1.13224 5.80868,-4.99006 4.86742,-5.95833 -0.2805,-0.28857 -1.18816,-0.15585 -2.01701,0.2949 -0.82887,0.45076 -2.22272,1.0469 -3.09749,1.32475 -0.99766,0.3169 -1.38326,1.0607 -1.03451,1.99559 0.30575,0.8197 0.19557,1.39409 -0.2449,1.2764 -0.91647,-0.24487 -7.68347,2.65561 -7.68347,3.29329 0,0.58569 6.03285,-0.87282 9.20996,-2.2266 z"
                                 id="path325" />
                              <path
                                 style="fill:#f4b400;fill-opacity:1;stroke-width:0.930764"
                                 d="m 274.43844,140.60888 c 0,-0.68558 0.87559,-2.77308 1.94574,-4.63892 l 1.9457,-3.39241 -2.37685,-5.44837 c -1.30726,-2.99661 -3.03373,-8.36212 -3.83658,-11.92337 -0.80285,-3.56122 -2.09958,-7.74778 -2.8816,-9.30347 -0.78201,-1.55568 -2.15015,-4.98962 -3.04031,-7.630955 -1.50497,-4.465719 -7.1042,-11.882694 -8.97046,-11.882694 -0.45065,0 -1.77278,1.044018 -2.93808,2.320034 -1.87195,2.049813 -2.04448,2.895708 -1.48136,7.26268 0.56118,4.351735 5.57419,19.578415 7.72311,23.458395 0.43136,0.77883 2.08807,5.66418 3.6816,10.85636 2.98123,9.71375 4.17817,12.07471 6.55838,12.93653 1.63429,0.59174 3.67071,-0.85836 3.67071,-2.61381 z"
                                 id="path324" />
                              <path
                                 style="fill:#f4b400;fill-opacity:1;stroke-width:0.930764"
                                 d="m 210.0628,167.92087 c -4.08217,-1.2876 -4.37471,-1.62141 -6.73907,-7.68998 -1.35941,-3.48917 -3.64368,-9.31764 -5.07614,-12.95216 -4.43417,-11.25062 -9.15382,-26.36223 -9.15022,-29.29764 0.003,-2.59861 3.30994,-9.61792 4.13239,-8.77187 0.20141,0.2072 -0.31199,2.31684 -1.14088,4.68808 -1.49562,4.27852 -1.48391,4.37895 1.5359,13.1822 5.86255,17.09024 13.12846,36.25846 14.18457,37.42035 0.5862,0.64492 3.56547,1.44135 6.62055,1.76984 l 5.55473,0.59725 3.57023,-4.48206 3.57021,-4.48209 6.07749,0.58105 c 6.43816,0.61555 13.44635,-1.05679 15.59629,-3.72168 0.89816,-1.1133 0.62917,-1.35083 -1.5491,-1.36796 -2.4541,-0.0192 -2.35996,-0.14958 1.36438,-1.88806 2.2002,-1.02703 5.50386,-1.85383 7.34145,-1.83732 3.21803,0.0288 3.27351,0.0858 1.50574,1.54306 -1.88459,1.5536 -1.6137,1.51337 4.18945,-0.6222 3.44711,-1.26856 6.61569,-6.22717 4.74543,-7.42625 -0.51889,-0.33269 -2.28805,-5.06541 -3.93148,-10.5172 -1.64343,-5.45178 -3.34424,-10.54954 -3.77957,-11.32837 -1.68901,-3.02167 -8.30568,-22.293392 -8.32037,-24.233905 -0.0102,-1.278252 -0.45952,-1.873878 -1.19576,-1.583242 -1.82476,0.720323 -0.25511,-5.099961 2.65375,-9.840208 2.8893,-4.708362 4.35898,-4.929981 10.7163,-1.615983 4.26615,2.223883 6.36237,4.202517 3.07922,2.906487 -1.09043,-0.430449 -1.32865,-0.181499 -0.90728,0.948136 0.43147,1.156689 0.17556,1.389923 -1.04492,0.952331 -0.889,-0.318749 -0.51076,0.284091 0.84048,1.339632 1.35127,1.055539 2.74377,3.286884 3.09447,4.958569 0.35068,1.671684 1.38881,4.566517 2.30696,6.432963 0.91815,1.86647 2.75036,7.34881 4.07162,12.18296 1.32125,4.83418 3.20385,10.40578 4.18361,12.38136 2.16524,4.36612 2.2358,7.02503 0.31341,11.81217 -2.03277,5.06202 -3.89639,6.95952 -6.83529,6.95952 -1.39603,0 -2.74931,0.63446 -3.0452,1.42772 -0.42302,1.13401 -0.0184,1.30877 1.96661,0.8495 1.37455,-0.31801 3.53156,-1.30258 4.79338,-2.18792 3.16236,-2.21888 7.90566,-4.11303 10.84642,-4.33134 4.35214,-0.32306 4.7542,-0.45892 4.7542,-1.6065 0,-2.67647 5.1701,-6.52213 11.28823,-8.39651 3.47796,-1.06551 6.54642,-1.70805 6.81879,-1.42784 0.27239,0.28019 -0.18012,1.56981 -1.00558,2.86578 -0.82546,1.29598 -1.50084,2.56085 -1.50084,2.81082 0,0.59548 18.6735,-6.23682 19.27135,-7.05103 1.7125,-2.33229 17.39705,-5.96417 18.93301,-4.3841 0.35431,0.3645 -0.457,0.66272 -1.80292,0.66272 -1.7135,0 -2.45137,0.4953 -2.46121,1.65205 -0.0115,1.35823 -0.16252,1.4107 -0.84875,0.29505 -0.70648,-1.14856 -1.79681,-0.98163 -7.09799,1.08658 -3.44481,1.34398 -9.97992,3.7373 -14.52246,5.31847 -4.54252,1.58119 -13.51288,4.79805 -19.9341,7.14858 -6.42123,2.35053 -13.12295,4.43782 -14.8927,4.63845 -1.76975,0.20063 -3.74278,0.77601 -4.38449,1.27862 -0.64171,0.50262 -3.23154,1.67545 -5.75517,2.60631 -2.52363,0.93085 -5.45167,2.24381 -6.50675,2.91769 -1.05507,0.67387 -3.73928,1.70997 -5.96492,2.30241 -2.22565,0.59245 -4.86931,1.32558 -5.87479,1.62919 -1.65306,0.49911 -1.69981,0.39288 -0.48805,-1.10911 1.20703,-1.49616 1.16075,-1.62532 -0.46604,-1.30077 -1.01795,0.20308 -1.80855,1.12391 -1.81163,2.11006 -0.0102,3.26718 -13.21022,7.61906 -18.26719,6.02247 -2.51792,-0.79495 -3.49182,-0.67375 -5.25649,0.65416 l -2.16597,1.62989 2.2942,-0.68896 c 1.26181,-0.37893 2.81041,-0.88853 3.44132,-1.13244 0.6309,-0.24391 1.14709,-0.21675 1.14709,0.0603 0,0.27711 -2.16802,1.60646 -4.81781,2.95411 -2.64982,1.34766 -5.85025,3.07181 -7.11206,3.83142 -2.7809,1.67411 -5.52293,1.64125 -11.15004,-0.13365 z"
                                 id="path323"
                                 sodipodi:nodetypes="ssscssssscccsscscssssscsssssssssscsssssssssssssssssssssssssssssscsssssss" />
                              <path
                                 style="fill:#f4b400;fill-opacity:1;stroke-width:0.930764"
                                 d="m 913.14585,169.93548 c -1.5786,-0.92833 -1.8283,-1.35958 -0.8006,-1.3826 0.82143,-0.0184 2.00763,0.60377 2.63597,1.3826 1.39716,1.73185 1.10965,1.73185 -1.83537,0 z"
                                 id="path322" />
                              <path
                                 style="fill:#f4b400;fill-opacity:1;stroke-width:0.930764"
                                 d="m 893.40998,155.06698 c 3.02073,-2.01733 5.97062,-7.33765 5.97062,-10.76822 0,-0.83913 1.62127,-4.97246 3.60274,-9.1852 1.98146,-4.21273 5.06964,-11.92494 6.86252,-17.13827 l 3.2598,-9.47877 -1.90924,-3.96965 c -1.86685,-3.8815 -3.55593,-4.51107 -3.55741,-1.3259 -3.6e-4,0.87799 -1.20409,4.21307 -2.67486,7.41127 -2.30604,5.0144 -15.67806,44.2097 -15.67806,45.95453 0,1.01947 0.77223,0.73863 4.12389,-1.49979 z"
                                 id="path321" />
                              <path
                                 style="fill:#f4b400;fill-opacity:1;stroke-width:0.930764"
                                 d="m 904.78181,160.90051 c -1.47261,-0.93628 -2.14297,-0.43962 -1.30008,0.9633 0.3377,0.56223 1.04258,0.74979 1.56639,0.41683 0.6165,-0.39201 0.5227,-0.87852 -0.26631,-1.38013 z"
                                 id="path320" />
                              <path
                                 style="fill:#f4b400;fill-opacity:1;stroke-width:0.930764"
                                 d="m 913.80896,162.61924 c 0.48831,-0.64902 1.53134,-3.0917 2.3178,-5.42818 0.78645,-2.33648 3.76993,-10.83276 6.62998,-18.88062 2.86004,-8.04788 5.30374,-15.26971 5.43057,-16.04854 0.12674,-0.77883 1.13115,-3.20614 2.23191,-5.39403 1.93602,-3.84804 1.94529,-4.00884 0.28493,-4.92293 -0.94401,-0.51974 -1.97715,-0.67673 -2.29587,-0.34885 -0.31869,0.32789 -0.5795,-0.13694 -0.5795,-1.03296 0,-0.896 -0.41966,-1.36226 -0.93264,-1.03614 -0.51299,0.32613 -0.71267,0.95907 -0.44388,1.40653 0.26878,0.44747 0.0979,1.06207 -0.37983,1.36579 -0.47765,0.30372 -1.95146,4.05021 -3.27503,8.32551 -1.32357,4.27531 -2.98339,9.06656 -3.68837,10.64722 -4.70605,10.55179 -10.26592,30.61839 -8.87875,32.04537 0.84059,0.86478 2.67145,0.5076 3.57868,-0.69817 z"
                                 id="path319" />
                              <path
                                 style="fill:#f4b400;fill-opacity:1;stroke-width:0.930764"
                                 d="m 924.12336,154.59497 c 2.13911,-6.1008 5.09736,-15.34051 6.5741,-20.53269 1.47663,-5.19216 3.08708,-10.17796 3.57877,-11.07955 0.4917,-0.90159 0.89402,-2.45924 0.89402,-3.46144 0,-1.00222 0.51619,-2.03767 1.14709,-2.30103 0.86805,-0.36233 0.81866,-0.71346 -0.2028,-1.44338 -0.7425,-0.53051 -1.49078,-0.81974 -1.66285,-0.64272 -0.40928,0.42103 -5.12176,12.91704 -8.91823,23.64829 -7.86381,22.22813 -8.77598,25.09876 -8.25206,25.97073 1.56197,2.60004 3.24463,0.10192 6.84196,-10.15821 z"
                                 id="path318" />
                              <path
                                 style="fill:#f4b400;fill-opacity:1;stroke-width:0.930764"
                                 d="m 919.7694,171.57739 c -0.79563,-0.27285 -0.84023,-0.88278 -0.16013,-2.19007 0.81418,-1.56505 0.62568,-1.81191 -1.38387,-1.81191 -1.45617,0 -2.3265,-0.52971 -2.3265,-1.41605 0,-0.77883 -0.30972,-1.36574 -0.68826,-1.30425 -0.37855,0.0614 -2.03037,0.0614 -3.67074,0 -2.7179,-0.10192 -2.98761,-0.38393 -3.04064,-3.1799 -0.0541,-2.87148 -0.11343,-2.92628 -0.92017,-0.85499 -0.47408,1.21721 -1.6867,2.43499 -2.69487,2.70619 -1.00807,0.27119 -1.83289,0.85012 -1.83289,1.2865 0,0.43637 -5.67815,-1.25651 -12.61815,-3.76197 -6.93996,-2.50546 -15.59959,-5.07233 -19.24361,-5.70416 -4.70203,-0.81526 -7.54877,-1.90363 -9.806,-3.74892 -1.74929,-1.43007 -5.16867,-3.33114 -7.5986,-4.22456 -2.42993,-0.89345 -5.77425,-2.23606 -7.43167,-2.98357 -1.65751,-0.74753 -4.42058,-1.35915 -6.14022,-1.35915 -1.71965,0 -3.38129,-0.42398 -3.69266,-0.94219 -0.76755,-1.27756 -9.89924,-5.66603 -11.79013,-5.66603 -0.83453,0 -1.51737,-0.38008 -1.51737,-0.84462 0,-0.47786 1.39468,-0.52102 3.21189,-0.0994 1.76653,0.40985 3.21188,0.41351 3.21188,0.008 0,-1.0542 -5.84445,-3.76405 -8.39781,-3.89378 -1.66146,-0.0844 -1.77204,-0.2115 -0.48224,-0.55459 0.98274,-0.26138 1.4683,-0.99472 1.17657,-1.77685 -0.32065,-0.85961 1.42121,-0.33576 4.91299,1.4775 5.4537,2.83203 7.58401,4.72143 5.36826,4.76107 -0.66063,0.0117 0.24411,0.74138 2.01064,1.62123 1.76655,0.87985 3.66358,2.20684 4.21557,2.94887 0.61989,0.83332 1.93557,1.16585 3.44132,0.86975 1.34073,-0.26365 2.43762,-0.17797 2.43762,0.1904 0,0.79305 4.91182,2.98298 11.92988,5.31895 2.776,0.92399 6.07965,2.62494 7.34148,3.77989 1.36505,1.24947 5.45333,2.88264 10.0945,4.0326 4.29018,1.06296 11.31046,3.37415 15.60062,5.13597 4.29017,1.76181 8.93594,3.48106 10.32394,3.82054 2.88327,0.70519 3.4904,-0.86392 0.68825,-1.77882 -1.00944,-0.3296 -1.83536,-1.02051 -1.83536,-1.53538 0,-0.51487 0.41296,-0.67358 0.91768,-0.35269 1.32661,0.84345 1.13042,-1.00411 -0.22942,-2.15969 -0.79389,-0.67465 -2.13619,-0.62904 -4.35899,0.14811 -4.03294,1.41 -6.17858,0.98926 -6.90134,-1.35321 -0.31009,-1.00505 -0.86042,-1.82738 -1.223,-1.82738 -0.36258,0 -0.65918,-0.81844 -0.65918,-1.81875 0,-1.00032 0.29467,-1.63137 0.65495,-1.40234 0.5308,0.33747 1.73021,-2.0634 2.16364,-4.33116 0.30714,-1.60692 1.96346,-5.94946 4.14919,-10.87811 1.38691,-3.12726 3.24677,-8.43745 4.13315,-11.80039 0.88641,-3.36295 3.20539,-9.6274 5.15316,-13.92099 1.94788,-4.2936 3.54162,-8.38351 3.54162,-9.08872 0,-2.316412 2.42424,-3.648871 4.52978,-2.489689 1.04166,0.573521 1.89401,1.535989 1.89401,2.138829 0,0.60285 1.09076,2.71518 2.42378,4.69407 l 2.42388,3.59799 -5.29421,14.86136 c -2.91172,8.17375 -5.60043,15.28619 -5.97494,15.80541 -0.37441,0.51921 -1.19785,2.64329 -1.82987,4.72016 -0.63199,2.07687 -2.00523,5.37737 -3.05157,7.33446 -1.69155,3.1637 -1.74973,3.71545 -0.52537,4.97505 0.75746,0.77919 2.23951,1.58755 3.29347,1.79635 2.06874,0.40984 2.47683,-0.44636 6.72351,-14.10586 1.12994,-3.63452 2.27382,-7.24545 2.54188,-8.02427 0.72984,-2.12011 0.86455,-2.69824 0.99009,-4.24814 0.0633,-0.77882 0.57934,-1.30985 1.14711,-1.18004 0.56785,0.1298 1.2408,-0.35414 1.49554,-1.07544 0.32202,-0.91176 0.077,-1.07231 -0.80297,-0.5268 -0.98302,0.60921 -1.0456,0.4803 -0.27971,-0.57662 0.54253,-0.74869 1.48904,-3.1693 2.10333,-5.37912 0.6143,-2.20982 2.4693,-6.92094 4.12224,-10.46912 3.33484,-7.15841 4.14654,-7.39088 9.12414,-2.61315 1.41407,1.3572 3.12334,2.46764 3.79848,2.46764 0.67523,0 2.20252,0.81879 3.39404,1.81952 l 2.16648,1.8195 -2.155,5.96876 c -8.90245,24.65675 -11.69027,32.57349 -14.25923,40.49189 -1.83399,5.65299 -3.34377,8.89276 -4.03387,8.65614 z"
                                 id="path317" />
                              <path
                                 style="fill:#f4b400;fill-opacity:1;stroke-width:0.930764"
                                 d="m 192.99213,171.58909 c -0.95427,-1.4287 -3.30646,-7.0582 -5.22705,-12.50998 -1.9206,-5.45179 -4.71586,-13.31084 -6.21169,-17.46459 -3.58218,-9.94727 -5.51011,-17.30682 -4.83023,-18.43849 0.80458,-1.3392 2.29385,-1.11687 1.78103,0.2659 -0.39852,1.07457 2.85733,11.2161 10.5318,32.80508 4.90014,13.78463 5.60213,15.10451 8.03337,15.10451 2.16813,0 2.17258,-0.0199 0.43409,-1.9395 -0.96606,-1.06673 -4.35028,-10.09403 -7.52048,-20.06067 -3.17021,-9.96664 -6.60454,-19.82043 -7.63182,-21.8973 -1.02731,-2.07687 -1.93083,-5.21814 -2.00783,-6.98063 l -0.13997,-3.20451 2.10848,4.14854 c 1.15967,2.2817 2.77658,6.27261 3.59314,8.8687 0.81656,2.59609 1.84725,5.56977 2.29044,6.60822 0.44317,1.03843 1.68314,5.21335 2.75547,9.2776 2.61087,9.89554 6.08851,19.24272 8.40374,22.58753 2.05472,2.96843 1.63136,3.91228 -2.16739,4.8318 -1.99922,0.4839 -2.78506,0.10885 -4.1951,-2.00221 z"
                                 id="path316" />
                              <path
                                 style="fill:#f4b400;fill-opacity:1;stroke-width:0.930764"
                                 d="m 917.80667,173.63293 c 0.0441,-1.09976 0.26154,-1.32344 0.55447,-0.57035 0.26511,0.68146 0.23253,1.4957 -0.0725,1.8094 -0.30494,0.31368 -0.52189,-0.24389 -0.48205,-1.23905 z"
                                 id="path315" />
                              <path
                                 style="fill:#f4b400;fill-opacity:1;stroke-width:0.930764"
                                 d="m 899.27415,179.9 c -11.46627,-4.9107 -29.57216,-11.38058 -31.84856,-11.38058 -0.76772,0 -2.0479,-0.59374 -2.84472,-1.31942 -1.60513,-1.46183 -10.94951,-5.07036 -23.2918,-8.99457 -4.44289,-1.4126 -7.95303,-2.91609 -7.80032,-3.34109 0.15262,-0.42502 -2.90528,-1.71771 -6.79543,-2.87265 -3.89015,-1.15494 -10.08451,-3.41042 -13.76524,-5.01218 -11.91732,-5.18604 -21.60181,-8.83254 -27.9809,-10.53558 l -6.24189,-1.66642 -0.4762,-4.7528 c -0.51518,-5.1423 -5.76579,-14.2212 -9.79543,-16.93731 -3.05442,-2.05882 -2.73258,-5.9993 1.42369,-17.431548 9.61612,-26.449998 12.26906,-33.413087 13.64081,-35.80192 1.79683,-3.129097 10.01606,-6.506348 15.83443,-6.506348 2.15638,0 6.24355,1.030227 9.08269,2.289393 2.83904,1.259167 6.40084,2.745496 7.91502,3.302951 2.44616,0.900596 2.26291,0.953989 -1.64413,0.478978 -2.41846,-0.294025 -6.13508,-1.346216 -8.25915,-2.338191 -7.15316,-3.340611 -17.82489,-1.335643 -21.16287,3.976033 -1.52337,2.423984 -4.55492,10.412532 -9.43397,24.859921 -1.75352,5.192174 -3.52115,10.082655 -3.92804,10.867727 -0.407,0.785083 -1.43599,3.890514 -2.28678,6.900974 l -1.54675,5.47356 4.48554,5.04888 c 5.30356,5.9695 7.52767,10.40085 7.52767,14.9982 0,3.1382 0.22207,3.3942 3.44129,3.96746 8.72156,2.02548 17.23085,5.26196 25.46572,8.82453 1.00944,0.46694 4.72606,2.00195 8.25914,3.4111 3.53308,1.40918 7.2497,2.89311 8.25914,3.29762 1.00946,0.40451 5.75847,2.10852 10.55335,3.78669 4.7949,1.67817 9.11031,3.42164 9.58981,3.87442 0.47948,0.45277 1.48471,0.82321 2.2339,0.82321 0.74911,0 3.04101,0.80498 5.09315,1.78883 4.66669,2.23746 21.43478,8.77904 27.72871,10.81761 2.59951,0.84196 10.74635,4.1116 18.10395,7.26584 l 13.37753,5.73499 4.28191,-3.36331 c 3.39443,-2.66626 5.11039,-3.36333 8.27943,-3.36333 2.80517,0 3.9976,-0.39225 3.9976,-1.31505 0,-0.72327 0.60393,-1.55345 1.34211,-1.84484 0.7382,-0.29139 2.6601,-3.20434 4.27091,-6.47321 3.40084,-6.90145 14.58574,-39.66278 14.55565,-42.63461 -0.0203,-1.97511 -0.0532,-1.97072 -1.69589,0.22715 -0.92144,1.23268 -2.43085,4.84361 -3.35432,8.02426 -0.92336,3.18068 -2.57262,8.1195 -3.66485,10.97519 -1.09231,2.85571 -3.55539,9.79861 -5.47361,15.42869 -3.62044,10.62628 -6.04424,14.24219 -8.91758,13.30401 -1.16729,-0.3811 -1.91713,0.1096 -2.5163,1.64676 l -0.85354,2.18963 -0.0579,-2.36563 c -0.0421,-1.72716 0.65338,-2.68965 2.57822,-3.56615 2.04075,-0.92925 3.31311,-2.84771 5.63137,-8.49071 1.64724,-4.00964 3.52802,-9.2019 4.17958,-11.53837 0.65156,-2.33647 2.24694,-7.36874 3.54547,-11.18279 1.29844,-3.81406 2.3612,-7.8498 2.36157,-8.96831 3.7e-4,-1.11851 1.41296,-3.66601 3.13912,-5.66113 2.41184,-2.78763 3.58025,-3.48324 5.04652,-3.00447 2.95402,0.96447 2.43801,4.5579 -3.09664,21.56399 -5.69165,17.48869 -9.84141,27.53088 -12.65218,30.61748 -1.59291,1.7492 -1.67486,2.12408 -0.46443,2.12408 2.30338,0 4.88042,-4.10539 7.56188,-12.04675 1.35679,-4.01824 3.24365,-9.21755 4.19298,-11.55404 4.72241,-11.62289 8.20052,-21.93952 8.18849,-24.28848 -0.0129,-2.5962 -2.0011,-9.34526 -3.73332,-12.67475 -0.85224,-1.63829 -3.81058,-3.24873 -18.50709,-10.07489 -4.65586,-2.16252 -6.19437,-3.34695 -6.19437,-4.768682 0,-1.040359 0.41297,-2.154104 0.9177,-2.474997 0.50471,-0.320902 0.91767,0.271324 0.91767,1.316043 0,1.978816 1.74618,3.055326 10.80114,6.658956 9.67321,3.84965 13.72239,6.43223 14.39266,9.17962 0.34955,1.4325 1.46673,4.48173 2.48279,6.7761 2.37671,5.36696 2.00495,7.31474 -4.70019,24.62839 -2.92815,7.56083 -6.06616,16.18532 -6.97338,19.16553 -0.90713,2.98022 -2.84417,6.90974 -4.30457,8.73228 -2.15537,2.68985 -3.29055,3.31472 -6.02973,3.319 -5.12242,0.007 -10.34825,1.80087 -14.05991,4.82365 -1.83922,1.49784 -4.31697,2.70024 -5.5061,2.67203 -1.18922,-0.0282 -6.95908,-2.10572 -12.82196,-4.61665 z"
                                 id="path314" />
                              <path
                                 style="fill:#f4b400;fill-opacity:1;stroke-width:0.930764"
                                 d="m 212.74402,183.35786 c -3.26754,-3.5978 -7.66736,-5.47114 -14.65341,-6.23903 -7.47545,-0.82168 -8.43146,-1.70713 -11.69768,-10.83427 -8.28913,-23.16315 -13.81729,-39.81096 -13.81729,-41.61015 0,-1.16594 0.80813,-2.87225 1.79582,-3.79177 1.75812,-1.63675 1.77412,-1.61267 0.76184,1.14617 -1.12609,3.06901 -0.9277,3.74978 10.11007,34.69022 6.79552,19.04881 6.35196,18.46094 13.8301,18.33047 7.24708,-0.12643 10.72248,1.09971 13.74096,4.84787 2.19673,2.72777 5.33875,3.59667 7.06777,1.95454 0.47949,-0.4554 3.14307,-1.57568 5.91905,-2.48951 2.776,-0.91382 6.52012,-2.42178 8.32027,-3.35099 3.32764,-1.71773 8.3454,-3.67372 21.50443,-8.3828 4.0378,-1.44495 13.12288,-4.99258 20.18903,-7.8836 7.06616,-2.89103 20.2808,-8.08899 29.36586,-11.55102 9.08506,-3.46203 17.21035,-6.92704 18.05618,-7.70003 0.84583,-0.77297 3.14443,-1.56461 5.10798,-1.75916 1.96354,-0.19456 6.63994,-1.55579 10.39199,-3.02495 6.49201,-2.54204 6.86635,-2.85189 7.74091,-6.40754 1.35365,-5.50338 4.87571,-11.30387 8.86741,-14.60379 1.97116,-1.62956 3.51999,-3.74302 3.51999,-4.80328 0,-1.04133 -2.04386,-7.92454 -4.5419,-15.29603 -9.58622,-28.287971 -11.15983,-32.206005 -14.10342,-35.11542 -1.74998,-1.729663 -2.09775,-1.91341 -0.89343,-0.472013 1.08456,1.298039 2.48004,4.484146 3.10108,7.080232 0.62103,2.596087 2.86692,9.393114 4.99087,15.104499 7.08924,19.063222 9.83645,28.792602 8.57239,30.359452 -0.61983,0.76827 -1.85868,1.20002 -2.75302,0.95943 -0.89432,-0.24057 -1.81971,0.0485 -2.05644,0.64241 -0.40316,1.01149 -0.71815,-0.18203 -0.4969,-1.88274 0.0432,-0.33137 -0.39631,-0.90428 -0.97648,-1.27314 -0.58016,-0.36885 -2.71485,-5.72653 -4.74371,-11.905934 -2.02888,-6.179399 -4.24584,-12.509731 -4.92661,-14.067375 -1.88003,-4.3018 -3.79086,-10.720553 -5.01252,-16.83784 -0.94467,-4.730282 -1.543,-5.778185 -4.23071,-7.409503 -4.16587,-2.528482 -4.00315,-4.002034 0.2405,-2.178024 5.00233,2.150127 5.47124,2.795065 6.69826,9.213108 0.61868,3.23613 2.69352,10.132017 4.61073,15.32419 1.91723,5.192174 3.97754,11.351982 4.57853,13.688464 1.80524,7.018524 6.54166,16.564894 7.41871,14.952654 0.4852,-0.89185 -1.21019,-6.91517 -4.75724,-16.901464 -5.88408,-16.56592 -8.20267,-23.466467 -10.07003,-29.970137 -0.64274,-2.238497 -1.97584,-4.514433 -2.96249,-5.057624 -1.42134,-0.782527 -1.53526,-1.152061 -0.54853,-1.779409 1.02928,-0.654398 1.01099,-0.869206 -0.10544,-1.238008 -3.85257,-1.272687 -7.07334,-1.179308 -10.45091,0.303033 -2.0611,0.904553 -6.5316,2.210857 -9.93444,2.902881 -6.04557,1.229476 -6.23961,1.207391 -8.48858,-0.966068 -1.26586,-1.223364 -2.30157,-2.637102 -2.30157,-3.141628 0,-0.504525 1.01267,0.206739 2.25038,1.580615 2.7902,3.097109 3.33803,3.094646 11.65637,-0.05246 9.51388,-3.599418 16.60106,-3.578319 21.70851,0.06462 3.18077,2.268732 4.25833,3.94392 6.66302,10.358541 5.33615,14.234364 13.70039,40.540388 13.70039,43.088528 0,1.8212 -1.03525,3.38834 -3.6859,5.57962 -5.01883,4.14903 -6.58731,6.88911 -7.75916,13.5549 l -0.99868,5.68063 -12.82006,4.637 c -15.84078,5.72957 -41.03757,15.36528 -56.86883,21.74769 -6.56145,2.64525 -18.95017,7.45406 -27.5305,10.68623 -8.58033,3.23218 -19.02592,7.38432 -23.21243,9.227 -10.92049,4.8066 -12.55527,5.05285 -15.08109,2.27172 z"
                                 id="path313"
                                 sodipodi:nodetypes="ssssssssssssssssssssssssssssscsscssssssssssssssssssssssscssssss" />
                              <path
                                 style="fill:#f4b400;fill-opacity:1;stroke-width:0.930764"
                                 d="m 431.02571,651.86353 h 10.40643 l 1.47167,-3.54011 c 2.35425,-5.66316 16.78821,-44.3119 19.83168,-53.10177 2.51901,-7.27519 14.56015,-39.7123 23.65462,-63.72213 5.76185,-15.21156 7.5955,-20.20379 18.37742,-50.03368 5.63009,-15.5765 11.26623,-31.05032 12.52478,-34.38614 1.25854,-3.33593 4.35724,-11.83221 6.88602,-18.88064 4.65629,-12.97854 11.88406,-32.17673 14.0654,-37.36023 0.65551,-1.55764 2.50305,-6.65542 4.10565,-11.32837 1.60258,-4.67297 3.60937,-10.40795 4.45942,-12.74443 0.85014,-2.33648 1.54841,-4.67295 1.5518,-5.19217 0,-0.51923 0.24833,-1.15645 0.54418,-1.41606 0.92779,-0.81403 2.67359,-6.78918 2.20941,-7.56178 -0.24346,-0.40518 0.12132,-0.95924 0.8106,-1.23139 0.68918,-0.27207 1.53253,-1.63978 1.87399,-3.03931 0.34147,-1.39953 2.66028,-7.87794 5.1529,-14.39638 2.49261,-6.51845 4.79095,-13.27148 5.10735,-15.00662 0.55613,-3.04943 1.82913,-4.77692 2.79104,-3.78739 0.25651,0.26384 2.86125,7.42202 5.78839,15.90706 2.92722,8.48506 8.32714,23.71124 11.99999,33.83598 3.67274,10.12474 8.02523,22.23194 9.6721,26.90489 5.89308,16.72182 25.26694,70.46053 36.58655,101.48338 2.36818,6.49022 6.98495,19.44705 10.25943,28.79296 3.27448,9.34592 8.79801,24.63923 12.27447,33.98513 3.47646,9.34592 8.77845,24.00201 11.78222,32.56909 7.36266,20.99932 18.03834,50.06294 21.15241,57.58592 l 2.54006,6.13621 10.48673,0.0803 c 5.76764,0.0444 12.61493,-0.10044 15.21619,-0.32107 l 4.72965,-0.40111 2.42406,-5.55666 c 1.3333,-3.05621 3.59126,-9.07158 5.01769,-13.36749 1.42647,-4.29591 5.16345,-15.24497 8.30441,-24.33129 3.14095,-9.08629 7.49838,-21.83072 9.68321,-28.32093 2.18482,-6.49022 8.17939,-23.9076 13.32136,-38.70529 26.92362,-77.48186 29.61197,-85.62498 28.74466,-87.0685 -0.33815,-0.56292 -0.18729,-0.74833 0.33744,-0.41472 0.56833,0.36128 2.06351,-2.89487 3.72625,-8.11441 1.5274,-4.79484 4.20161,-12.75358 5.94265,-17.68614 7.04918,-19.97052 12.96098,-37.04021 17.20866,-49.68798 17.32513,-51.58669 44.40274,-127.61419 48.03465,-134.87019 3.80169,-7.59508 13.34697,-17.37033 20.19729,-20.68389 7.50288,-3.62918 13.0734,-4.01345 22.97301,-1.58471 4.49196,1.10205 8.33907,1.82697 8.54903,1.61095 0.37543,-0.38616 6.68468,-17.52345 6.68468,-18.1569 0,-0.67917 -7.07552,-3.99109 -11.47103,-5.36939 -2.52363,-0.79134 -8.51151,-2.99986 -13.3064,-4.90782 -4.7949,-1.90796 -10.78279,-4.11947 -13.30642,-4.91448 -2.52363,-0.79501 -5.20785,-1.98232 -5.96494,-2.6385 -0.75709,-0.65616 -3.85426,-1.91938 -6.88262,-2.80712 -3.02834,-0.88776 -10.25511,-3.54295 -16.05945,-5.90045 -5.80434,-2.35749 -14.26998,-5.68089 -18.8125,-7.38531 -4.54254,-1.70443 -13.21464,-5.10385 -19.27135,-7.55426 -6.0567,-2.45042 -16.58711,-6.55768 -23.4009,-9.12728 -6.81381,-2.5696 -15.07296,-5.73001 -18.35368,-7.02315 -3.28071,-1.29315 -6.51279,-2.42539 -7.18251,-2.51608 -0.75911,-0.10285 -2.56805,3.56732 -4.80435,9.74742 -1.97275,5.45178 -3.98027,10.60792 -4.46123,11.45807 -0.71468,1.26353 -0.34017,1.65527 2.05139,2.14575 4.46094,0.91492 33.27069,12.78148 40.70677,16.76693 16.56418,8.8777 23.16975,18.3529 24.56692,35.23944 1.0113,12.22316 -0.22069,16.89467 -20.53966,77.88261 -7.69781,23.10516 -21.14654,63.67491 -29.88618,90.15499 -8.73966,26.48009 -17.19712,51.96893 -18.79425,56.64189 -1.59723,4.67296 -3.85749,11.6824 -5.02295,15.57651 -1.16535,3.89414 -5.01521,15.57653 -8.55528,25.96087 -3.54014,10.38435 -7.78644,23.25235 -9.43634,28.59557 -2.12792,6.89161 -3.38222,9.63516 -4.31586,9.44032 -1.28908,-0.26896 -4.14546,-7.50458 -12.03386,-30.48363 -2.13894,-6.23061 -4.94337,-14.08966 -6.23216,-17.46458 -1.28871,-3.37491 -4.51308,-12.50842 -7.16509,-20.29668 -2.65212,-7.78827 -7.35395,-21.04142 -10.44856,-29.45152 -3.0947,-8.40999 -5.62668,-15.56765 -5.62668,-15.90579 0,-0.33825 -0.57043,-1.95349 -1.26769,-3.58969 -0.69716,-1.63609 -5.08993,-14.01991 -9.76167,-27.51955 -4.67165,-13.49965 -11.10204,-31.62072 -14.28971,-40.26899 -3.18775,-8.64827 -7.27731,-20.11826 -9.08808,-25.48883 -4.51142,-13.38079 -5.29448,-15.10527 -6.23465,-13.72954 -0.47122,0.68945 -0.56153,0.34901 -0.2308,-0.86998 0.34296,-1.26422 -2.03111,-9.27075 -6.4381,-21.71272 -3.83985,-10.84051 -11.08597,-31.60479 -16.10258,-46.14288 -5.0167,-14.53809 -9.76194,-28.13214 -10.54519,-30.20901 -0.78315,-2.07687 -3.23913,-9.08631 -5.45764,-15.57651 -2.21858,-6.49023 -5.001,-14.34928 -6.18317,-17.46458 l -2.14948,-5.6642 -61.23142,-0.24271 -61.23147,-0.24271 0.26054,10.09509 0.26053,10.09511 6.35817,0.27795 c 10.64214,0.46521 20.1818,4.10183 30.83457,11.7544 5.51465,3.96154 10.31817,9.98327 14.30912,17.93807 1.40139,2.79325 2.77548,5.29104 3.05355,5.55064 0.49451,0.4617 2.77973,6.9875 12.31322,35.16225 l 4.71066,13.92152 -1.99643,5.43113 c -6.19425,16.85075 -8.58418,23.14809 -9.84084,25.93001 -0.77063,1.70604 -2.6262,6.50039 -4.12345,10.65413 -3.12769,8.67693 -10.99295,29.67119 -19.80557,52.86576 -3.35362,8.8267 -7.48191,19.87187 -9.17396,24.54482 -7.044,19.45375 -8.7701,24.0493 -12.41033,33.0411 -2.10198,5.19217 -4.61439,11.73601 -5.58315,14.54195 -0.96878,2.80595 -3.7951,10.45261 -6.28074,16.99257 -2.48563,6.53996 -5.85263,15.71425 -7.48219,20.38722 -1.62958,4.67295 -5.31079,14.65608 -8.18046,22.18473 -2.86967,7.52865 -6.59852,17.40558 -8.28632,21.94873 -1.68779,4.54316 -3.5681,8.26029 -4.17845,8.26029 -1.01541,0 -3.17082,-4.46566 -5.01212,-10.38436 -1.61495,-5.19103 -19.57268,-59.32595 -26.14852,-78.82662 -20.1168,-59.65637 -31.0096,-92.20913 -41.32139,-123.48748 -3.73308,-11.32344 -9.45034,-28.31601 -12.70501,-37.76127 -21.52176,-62.45733 -22.78798,-67.21939 -20.38779,-76.67461 1.50322,-5.92175 6.51387,-14.17358 10.92496,-17.99182 1.51336,-1.30997 5.97989,-4.29733 9.92564,-6.63859 l 7.17409,-4.25681 -1.70423,-4.4233 c -0.93732,-2.43282 -3.0937,-7.6543 -4.79196,-11.60329 l -3.08776,-7.17997 -3.65989,1.73223 c -2.01294,0.95273 -7.78947,3.24275 -12.83672,5.08895 -5.04726,1.84618 -13.92584,5.23934 -19.73019,7.54034 -5.80434,2.301 -16.33475,6.33549 -23.40092,8.96552 -7.06615,2.63005 -13.67348,5.1464 -14.68292,5.59192 -1.00947,0.44551 -8.44268,3.25276 -16.5183,6.23832 -8.07561,2.98558 -18.19306,6.83276 -22.48323,8.54928 -12.64404,5.05882 -35.96432,13.60672 -37.12204,13.60672 -0.58843,0 -1.78607,0.53874 -2.66144,1.1972 -1.48892,1.12 -1.39755,1.77444 1.41693,10.14834 1.65467,4.92313 3.07795,9.08709 3.16286,9.25326 0.0848,0.16616 2.77526,-0.52657 5.97856,-1.53941 15.24457,-4.82011 25.64257,-3.12474 37.38681,6.09587 2.21767,1.74112 3.73676,3.1657 3.37577,3.1657 -0.361,0 -0.0159,0.65889 0.76699,1.4642 4.90231,5.04307 12.71901,24.47567 23.33421,58.00977 1.56139,4.93256 4.13273,12.57923 5.71407,16.99256 3.19642,8.92089 13.99714,40.77273 21.44763,63.25012 2.66761,8.04786 7.56672,22.49155 10.88696,32.09707 10.62912,30.7504 30.57633,89.55015 43.55432,128.38828 2.34224,7.00943 4.59177,12.88686 4.99898,13.06104 0.40719,0.17419 0.54798,0.63685 0.31286,1.02824 -0.23511,0.3913 0.61019,3.64736 1.87847,7.23554 6.54795,18.52586 23.25613,67.94798 28.3758,83.93468 6.03045,18.8306 5.32106,17.80133 11.78961,17.10585 2.99378,-0.32191 10.12613,-0.5853 15.84966,-0.5853 z"
                                 id="path312" />
                              <path
                                 style="fill:#f4b400;fill-opacity:1;stroke-width:0.930764"
                                 d="m 406.63821,652.09955 c -0.6374,-1.42786 -2.60543,-7.05665 -4.37342,-12.50842 -4.5617,-14.06664 -17.9354,-53.79347 -35.11687,-104.31549 -5.12067,-15.0573 -11.93809,-35.23597 -15.14983,-44.8415 -7.57284,-22.64853 -21.36634,-63.08112 -30.27312,-88.73895 -3.87517,-11.16317 -9.04471,-26.45648 -11.4879,-33.98513 -3.89856,-12.01336 -13.42472,-40.25067 -19.74567,-58.52995 -1.16705,-3.37492 -5.61183,-16.54415 -9.87727,-29.26498 -14.06756,-41.95349 -18.14784,-49.45899 -30.36031,-55.84648 -7.62757,-3.98945 -15.23572,-4.51562 -25.39836,-1.75649 -11.77869,3.19786 -10.65306,3.80374 -14.73756,-7.93275 -3.90107,-11.20949 -4.17057,-12.67545 -2.44089,-13.27726 7.28912,-2.53605 29.38691,-10.64994 35.10138,-12.88854 4.03781,-1.58179 11.88156,-4.55709 17.43058,-6.61177 5.54902,-2.05469 14.01465,-5.26833 18.81251,-7.14143 4.79786,-1.8731 15.74366,-6.06697 24.324,-9.31971 8.58033,-3.25276 25.09862,-9.59603 36.7073,-14.09618 11.6087,-4.50014 22.14007,-8.38943 23.40305,-8.64286 2.17296,-0.43602 2.57973,0.22618 7.5709,12.32518 2.901,7.03227 5.27453,13.15272 5.27453,13.60101 0,0.44827 -3.19124,2.48021 -7.09169,4.51544 -8.39236,4.37907 -16.37714,12.04829 -19.57871,18.8049 -1.85088,3.90612 -2.21533,6.02262 -2.11324,12.27242 0.13871,8.49088 0.0113,8.05212 15.47572,53.33777 5.4078,15.83613 10.79475,31.76666 11.97105,35.40118 1.17631,3.63453 5.70098,17.22858 10.05481,30.20901 4.35386,12.98042 9.19248,27.63652 10.75253,32.56908 1.56006,4.93257 3.18586,9.1099 3.61287,9.28295 0.42704,0.17313 0.77643,0.99075 0.77643,1.81707 0,1.67764 10.80687,35.0517 14.44126,44.59784 1.28489,3.37491 9.0424,26.52728 17.2389,51.44971 18.92584,57.54628 17.94369,54.63215 18.68911,55.45203 0.63641,0.70001 11.66604,-27.3246 20.1523,-51.20389 4.48661,-12.62471 9.0491,-24.80386 22.63356,-60.41801 3.86193,-10.12473 7.36265,-19.47065 7.77938,-20.7687 0.41675,-1.29803 4.135,-11.28117 8.2628,-22.18473 4.12779,-10.90356 9.3543,-24.71002 11.61445,-30.68103 2.26017,-5.97099 5.95864,-15.95413 8.21883,-22.18473 2.26018,-6.23061 4.70179,-12.6454 5.42581,-14.25509 2.98731,-6.64177 10.53752,-27.87054 10.53752,-29.62814 0,-2.17024 -1.62587,-7.28802 -9.4514,-29.75123 -3.07497,-8.82669 -5.84817,-16.26094 -6.16264,-16.52056 -0.31449,-0.2596 -1.27996,-2.32187 -2.14551,-4.58283 -6.81292,-17.79663 -26.99447,-31.29036 -46.79855,-31.29036 h -6.02032 l -0.60937,-3.34138 c -0.33513,-1.83778 -0.2506,-7.46656 0.18784,-12.50841 l 0.7972,-9.16704 h 62.25065 c 40.38926,0 62.51368,0.33153 62.99969,0.94404 0.81609,1.02857 4.63191,11.17615 9.22968,24.5448 8.24465,23.97264 24.13158,69.43978 28.86269,82.60276 2.33276,6.49022 5.42223,15.19891 6.86547,19.35265 1.44324,4.15374 5.71332,16.26093 9.48912,26.9049 3.77581,10.64395 10.02614,28.27374 13.88959,39.17731 3.86345,10.90356 9.2284,25.98446 11.92208,33.51311 2.69367,7.52865 5.83517,16.44974 6.98118,19.82466 1.1459,3.37491 4.34312,12.29601 7.10489,19.82466 2.76167,7.52865 7.19838,20.06067 9.85931,27.84893 2.66082,7.78827 6.48589,18.62102 8.50021,24.0728 2.01422,5.45178 5.53959,15.43492 7.83418,22.18475 2.29448,6.74982 4.86399,13.971 5.71,16.04711 l 1.53814,3.77471 6.66669,-20.29526 c 3.66669,-11.16242 10.26969,-31.12802 14.67347,-44.36806 4.40369,-13.24005 9.58254,-28.95816 11.50867,-34.92917 2.93943,-9.11226 16.85729,-51.09154 31.14212,-93.93113 16.73752,-50.19496 22.84985,-69.00942 26.37558,-81.18671 3.92492,-13.55598 4.08351,-14.57112 3.71395,-23.78026 -0.33989,-8.47204 -0.73725,-10.35378 -3.33007,-15.77192 -3.78058,-7.89988 -10.95916,-14.58126 -20.90171,-19.45399 -9.30999,-4.56272 -36.45569,-15.62825 -40.45808,-16.49214 -4.00091,-0.86358 -4.24455,-1.58203 -2.1481,-6.33483 0.98825,-2.24055 3.33696,-8.21565 5.21924,-13.27802 1.88234,-5.06237 3.70953,-9.20431 4.06037,-9.20431 0.35082,0 4.51398,1.51049 9.25134,3.35663 4.73745,1.84616 12.74304,4.86132 17.79029,6.70034 5.04727,1.83903 11.65458,4.398 14.68294,5.68661 3.02835,1.28862 13.14581,5.24116 22.48323,8.78346 9.33741,3.54229 20.20445,7.78198 24.14902,9.42152 3.94447,1.63956 10.96473,4.39714 15.6006,6.12796 4.63576,1.73082 15.44901,5.89448 24.02934,9.25258 8.58035,3.3581 17.25246,6.64715 19.27135,7.30898 3.19859,1.04857 10.38607,4.38199 11.34605,5.26214 0.53748,0.49273 -7.40157,23.06261 -8.11232,23.06261 -0.35524,0 -3.87519,-0.84963 -7.82214,-1.88806 -13.74543,-3.61644 -21.2651,-2.22155 -31.40441,5.82545 -10.05569,7.98067 -12.55967,13.44426 -31.94205,69.69707 -4.20419,12.20161 -10.18914,29.40657 -13.29981,38.23327 -3.11067,8.8267 -7.45011,21.35872 -9.64311,27.84892 -7.06835,20.91861 -10.32649,30.3847 -15.59656,45.31352 -2.84097,8.04786 -10.05047,29.07616 -16.02111,46.72955 -5.97061,17.6534 -12.91959,38.04448 -15.44202,45.31352 -13.49178,38.87861 -23.64585,68.32351 -27.18351,78.82662 -2.18612,6.49023 -4.8831,14.34928 -5.9933,17.46458 -1.11032,3.11531 -3.38846,9.69993 -5.06269,14.6325 -7.7536,22.84377 -11.39431,32.92489 -13.21967,36.60575 l -1.97753,3.9876 h -16.38733 c -17.58418,0 -17.35018,0.0633 -19.15195,-5.19217 -0.5341,-1.55766 -4.75305,-13.02764 -9.3756,-25.48886 -4.62256,-12.46121 -11.23795,-30.72822 -14.70092,-40.59335 -3.46287,-9.86513 -9.16599,-25.79566 -12.67339,-35.40118 -7.47498,-20.47094 -30.78375,-84.94574 -41.46596,-114.69982 -24.39983,-67.96253 -35.42898,-98.85935 -37.66254,-105.506 -1.17958,-3.51057 -2.42874,-6.05946 -2.7758,-5.66418 -0.34707,0.39516 -1.47812,3.05497 -2.51335,5.91067 -1.03532,2.8557 -3.79434,10.28995 -6.13114,16.52055 -2.33678,6.23061 -6.88005,18.76263 -10.09616,27.84893 -3.21602,9.0863 -8.19596,22.46795 -11.06639,29.73699 -2.87044,7.26904 -6.17613,15.97773 -7.34597,19.35265 -1.16986,3.37491 -3.64489,10.17193 -5.50009,15.10449 -1.85521,4.93257 -4.72568,12.79163 -6.37882,17.46459 -1.65315,4.67296 -6.12294,16.99257 -9.93289,27.3769 -3.80994,10.38436 -8.9939,24.61563 -11.51993,31.62507 -7.78715,21.6084 -13.78563,37.74021 -18.42924,49.56165 -2.44743,6.23061 -5.70719,14.93929 -7.24387,19.35264 -1.53669,4.41335 -4.21739,11.8476 -5.95711,16.52056 -1.73972,4.67295 -5.93248,15.93053 -9.31725,25.01683 -3.38476,9.0863 -6.21618,17.15777 -6.29208,17.93659 -0.0759,0.77883 -0.34445,1.62847 -0.59681,1.88807 -0.25237,0.25961 -1.58999,2.9147 -2.9725,5.90019 l -2.51365,5.42819 H 425.09574 407.7971 Z"
                                 id="path311"
                                 sodipodi:nodetypes="ssssssssssscsssssssssssssssssssssssssssssssscsscsssssssssssssscssssssssssssssssssssssssssssscsssscsssssssssssssssssssssssscccs" />
                            </g>
                          </g>
                        </g>
                      </g>
                    </g>
                  </g>
                </g>
              </g>
            </g>
          </g>
        </g>
      </g>
    </g>
  </g>
  <g
     id="g419"
     transform="matrix(0.96355115,0,0,1,-47.300991,-56.495744)"
     inkscape:export-filename="wristhublogo.svg"
     inkscape:export-xdpi="96"
     inkscape:export-ydpi="96">
    <g
       id="g416"
       style="fill:#ffffff;fill-opacity:1"
       transform="matrix(0.90859627,0,0,1.0221521,4.4870342,-18.450467)">
      <path
         id="path418"
         style="display:inline;fill:#ffffff;fill-opacity:1;fill-rule:nonzero;stroke-width:0.930764"
         d="m 276.79963,776.97193 c -0.25087,-0.67262 -0.34534,-11.62281 -0.20991,-24.33383 l 0.24621,-23.11092 16.42296,-0.25839 c 9.03264,-0.14207 18.73713,0.18145 21.56556,0.71898 6.55712,1.24613 12.58677,5.08257 16.12296,10.25841 2.41207,3.53049 2.82129,5.04688 3.10671,11.51228 0.26942,6.10325 -0.0192,8.18551 -1.60018,11.54521 -5.21701,11.08633 -11.1319,13.08382 -42.56052,14.37279 -9.8656,0.40462 -12.73768,0.25008 -13.09379,-0.70453 z m -0.42256,36.6896 c 0,-12.81051 0.30009,-17.56437 1.14712,-18.17261 0.63091,-0.45295 8.03917,-0.69783 16.4628,-0.54404 l 15.3157,0.27953 4.48793,6.32869 c 2.46834,3.48073 8.14651,11.53265 12.61814,17.89307 l 8.13023,11.56439 h 11.28581 11.28582 l -5.82203,-7.78827 c -7.34124,-9.82055 -20.76821,-30.25365 -20.76821,-31.60503 0,-0.56095 2.16802,-2.28673 4.81784,-3.83522 14.5789,-8.51959 21.99407,-24.21846 19.2408,-40.73523 -1.57753,-9.46364 -4.86751,-16.38793 -10.38654,-21.86011 -6.33112,-6.27742 -11.04699,-8.97604 -19.63348,-11.2351 -6.48691,-1.70671 -10.17851,-1.88901 -38.25447,-1.88901 h -31.0747 l 0.14326,54.98984 c 0.0787,30.2444 0.33599,57.0077 0.57153,59.47399 l 0.42825,4.48414 h 10.0021 10.0021 z" />
      <path
         id="path305"
         style="fill:#ffffff;fill-opacity:1;stroke-width:0.930764"
         d="m 972.59267,832.26924 c -0.76947,-0.79148 -0.79003,-118.00987 -0.0212,-120.96263 l 0.56547,-2.17193 37.73516,0.30606 c 36.0464,0.29237 38.0043,0.39913 43.7433,2.3867 7.7865,2.69652 15.2748,8.11413 18.9106,13.68119 3.5033,5.36465 5.4428,15.02955 4.5278,22.56348 -0.7604,6.26091 -4.836,13.92315 -9.2465,17.38377 l -3.2298,2.53435 3.9036,2.59033 c 9.307,6.17557 13.6099,14.66467 14.2574,28.12863 0.4019,8.36007 0.2873,9.04421 -2.488,14.84378 -4.4209,9.23762 -11.5197,14.44302 -24.4047,17.89552 -4.4576,1.1944 -12.3102,1.45013 -44.5267,1.45013 -21.51309,0 -39.39001,-0.28321 -39.72644,-0.62938 z m 75.89263,-22.49698 c 1.6847,-1.04386 3.9866,-3.33079 5.1149,-5.08207 1.7114,-2.65581 1.9931,-4.06752 1.6984,-8.50953 -0.4369,-6.58637 -2.3823,-9.60844 -8.17,-12.69281 -4.2386,-2.25874 -4.8358,-2.31641 -26.8937,-2.59786 l -22.55891,-0.28774 v 15.8193 15.81939 l 23.87291,-0.28533 c 22.2313,-0.26575 24.0838,-0.4159 26.9364,-2.18335 z m -4.2438,-52.28636 c 11.325,-5.23598 11.4557,-18.78104 0.235,-24.33959 -3.8054,-1.88504 -5.8148,-2.06959 -25.6938,-2.36008 l -21.56557,-0.31503 0.0652,2.12408 c 0.0358,1.16824 0.13931,7.8938 0.22942,14.94572 l 0.16389,12.82174 20.87716,-0.32627 c 19.5877,-0.30614 21.1745,-0.46369 25.6883,-2.55057 z" />
      <path
         style="fill:#ffffff;fill-opacity:1;stroke-width:0.930764"
         d="m 718.74601,818.97416 c 0.0247,-6.62002 0.009,-17.79321 -0.0412,-24.82926 -0.0477,-7.03606 0.18235,-13.51447 0.51134,-14.39647 0.54702,-1.46646 3.3378,-1.60363 32.61895,-1.60363 h 32.02081 l 0.11754,15.3405 c 0.0652,8.43729 0.18869,16.61496 0.27559,18.17262 0.0871,1.55764 0.24044,6.54922 0.34129,11.09236 l 0.18326,8.26028 h 10.09451 10.09451 v -59.47398 -59.47399 h -10.079 -10.079 l -0.24494,24.30881 -0.24492,24.30881 -31.3531,0.24828 c -28.31363,0.22431 -31.50232,0.0949 -32.89178,-1.33448 -1.35982,-1.39877 -1.51509,-4.00571 -1.33643,-22.43302 0.11123,-11.46761 0.14932,-21.80608 0.0845,-22.97432 -0.11445,-2.06668 -0.3904,-2.12408 -10.21217,-2.12408 h -10.09454 v 59.47399 59.47398 h 10.09451 10.09452 z"
         id="path304" />
      <path
         style="fill:#ffffff;fill-opacity:1;stroke-width:0.930764"
         d="m 592.06005,780.03286 v -50.9777 h 19.17315 c 16.63687,0 19.24684,-0.19748 19.73018,-1.49327 0.30643,-0.8213 0.55705,-4.64463 0.55705,-8.49629 v -7.00301 l -13.99467,-0.0926 c -42.81469,-0.28433 -51.40165,-0.29831 -68.36739,-0.11158 l -18.58308,0.2041 v 8.53763 c 0,6.28253 0.30299,8.49723 1.14709,8.38452 0.63093,-0.0839 9.71597,-0.10295 20.18903,-0.0416 l 19.04193,0.11196 v 50.9777 50.9777 h 10.55335 10.55336 z"
         id="path302" />
      <path
         style="fill:#ffffff;fill-opacity:1;stroke-width:0.930764"
         d="m 402.09966,771.53658 v -59.47399 h -10.09451 -10.09451 v 59.47399 59.47398 h 10.09451 10.09451 z"
         id="path300" />
      <path
         style="fill:#ffffff;fill-opacity:1;stroke-width:0.930764"
         d="m 112.67607,827.5926 c 1.80572,-4.44582 16.54305,-48.26786 23.07221,-68.60617 3.74203,-11.65633 5.44517,-15.78062 6.43236,-15.57652 0.8809,0.18221 5.88104,13.91541 14.53713,39.92706 7.25692,21.80713 13.85108,41.45478 14.65367,43.66146 l 1.45927,4.01213 h 11.38282 11.38281 l 1.31715,-3.24284 c 0.72443,-1.78356 7.72164,-22.49325 15.54936,-46.02154 7.82772,-23.52828 15.86014,-47.45165 17.84985,-53.16303 1.98971,-5.7114 3.91259,-11.77973 4.27306,-13.48521 l 0.65541,-3.10086 -9.93537,0.26877 -9.93535,0.26876 -6.12226,18.39879 c -3.36722,10.11937 -5.92817,18.72186 -5.69099,19.11665 0.23718,0.39479 0.0693,0.71784 -0.37302,0.71784 -0.44234,0 -1.54245,2.44268 -2.4447,5.42818 -0.90226,2.9855 -2.81614,8.61428 -4.25308,12.50842 -1.43692,3.89412 -4.38416,13.14515 -6.5494,20.55789 -2.86158,9.79677 -4.29662,13.40638 -5.2543,13.21643 -0.76158,-0.15094 -2.75222,-4.44393 -4.71752,-10.17354 -1.87,-5.45179 -8.64546,-24.99322 -15.0566,-43.42546 -6.41111,-18.43221 -11.87623,-34.25653 -12.14468,-35.16515 -0.42559,-1.4406 -1.75828,-1.65207 -10.40963,-1.65207 h -9.92156 l -1.77528,4.95617 c -0.9764,2.7259 -3.95533,11.75319 -6.61987,20.06066 -2.66452,8.30749 -8.26485,24.71022 -12.44518,36.45057 -4.18032,11.74035 -8.06076,23.10413 -8.62319,25.25284 -0.96331,3.68021 -3.704932,5.60954 -3.704932,2.60733 0,-0.71473 -2.214119,-8.04278 -4.920254,-16.28455 -14.159977,-43.12543 -18.24095,-55.42342 -21.105992,-63.6027 l -3.141413,-8.9683 -10.762183,-0.26697 c -10.02509,-0.24866 -10.714748,-0.15161 -10.069773,1.41604 0.533889,1.29777 33.389061,99.34487 38.287617,114.25878 l 1.007736,3.0681 h 11.363895 11.363899 z"
         id="path294" />
      <path
         style="fill:#ffffff;fill-opacity:1;stroke-width:0.930764"
         d="m 908.08458,830.44745 c 15.8148,-4.21567 25.71687,-13.90258 31.34915,-30.6681 l 2.66945,-7.9461 0.32577,-39.88533 0.32578,-39.88533 H 932.5903 922.42594 l -0.0155,35.6372 c -0.0174,38.88493 -0.57786,44.72716 -5.04313,52.56527 -2.81618,4.94361 -7.76827,9.67 -12.06779,11.51803 -3.06416,1.31703 -12.21124,3.66039 -13.26989,3.39955 -0.31459,-0.0774 -2.79233,-0.32596 -5.50609,-0.55207 -4.59146,-0.38261 -6.29797,-0.85482 -12.97935,-3.5911 -3.69496,-1.51327 -10.93906,-10.12378 -13.04349,-15.50382 -1.69165,-4.32489 -1.83776,-7.37374 -2.11131,-44.05975 l -0.2943,-39.41331 H 848.0472 837.99919 l 0.0155,37.99727 c 0.0174,41.66634 0.43195,46.05458 5.37688,56.92501 7.69973,16.92647 27.51902,26.69863 51.44128,25.36395 4.25602,-0.23743 10.21913,-1.093 13.25134,-1.90137 z"
         id="path292" />
      <path
         style="fill:#ffffff;fill-opacity:1;stroke-width:0.930764"
         d="m 492.62707,830.57631 c 8.56141,-2.10464 15.87122,-6.05927 21.12041,-11.42627 3.81676,-3.90245 5.11007,-6.08419 6.6532,-11.2237 2.4021,-8.00037 2.40689,-11.89734 0.0243,-19.8323 -2.62099,-8.72946 -7.94644,-14.25138 -17.72615,-18.3802 -3.97564,-1.67849 -8.10521,-3.17327 -9.17683,-3.32176 -1.07161,-0.14851 -2.56783,-0.51771 -3.32492,-0.82046 -0.75709,-0.30276 -7.00272,-2.02334 -13.87918,-3.82361 -15.05914,-3.94246 -21.2022,-6.53761 -24.22584,-10.23415 -2.64394,-3.23237 -3.0417,-8.75089 -0.9331,-12.9456 0.73695,-1.46599 1.14992,-2.93178 0.91768,-3.2572 -0.23224,-0.3254 -0.19028,-0.42386 0.0932,-0.21872 0.28352,0.20504 1.58572,-0.64742 2.89379,-1.89458 3.34305,-3.18715 10.28836,-5.12798 20.45049,-5.71461 12.03109,-0.69462 21.38533,1.54643 33.21218,7.95677 0.8188,0.4438 3.25126,-4.41588 5.34744,-10.68359 l 1.65065,-4.9354 -4.28149,-2.39718 c -8.48557,-4.75103 -18.46124,-6.76096 -33.17572,-6.6845 -20.21145,0.10507 -31.7524,3.68389 -40.31518,12.50172 -6.59931,6.79589 -8.76027,12.18895 -8.76027,21.86273 0,9.70964 2.14923,15.05758 8.28383,20.61245 6.21395,5.62681 14.23844,9.13455 30.3102,13.24939 17.58352,4.50189 25.73311,7.69612 29.62677,11.61215 2.5998,2.61479 2.87903,3.44987 2.87903,8.60967 0,5.51172 -0.1415,5.85346 -3.99719,9.65394 -4.99263,4.92115 -9.31309,6.12073 -22.04429,6.12073 -14.8403,0 -28.18199,-3.721 -37.30644,-10.40474 l -2.6639,-1.95132 -3.80404,7.78307 -3.80403,7.78317 2.16741,1.84001 c 5.3191,4.51577 21.76714,10.54483 32.61489,11.95511 8.1916,1.06506 24.06273,0.35676 31.17292,-1.39102 z"
         id="path290" />
    </g>
  </g>
</svg>
